<svg width="18" height="31" viewBox="0 0 18 31" fill="none" xmlns="http://www.w3.org/2000/svg">
<path d="M0.83794 0.869865C0.301244 1.42085 3.4384e-07 2.16618 3.34575e-07 2.94308C3.25311e-07 3.71998 0.301244 4.46531 0.83794 5.0163L11.0387 15.5735L0.83794 25.9837C0.301244 26.5347 4.43603e-08 27.28 3.50959e-08 28.0569C2.58314e-08 28.8338 0.301244 29.5792 0.837939 30.1301C1.10582 30.4058 1.42452 30.6245 1.77567 30.7738C2.12682 30.9231 2.50345 31 2.88386 31C3.26426 31 3.6409 30.9231 3.99204 30.7738C4.34319 30.6245 4.66189 30.4058 4.92977 30.1301L17.1476 17.6614C17.4177 17.3881 17.6321 17.0628 17.7784 16.7045C17.9247 16.3461 18 15.9617 18 15.5735C18 15.1853 17.9247 14.8009 17.7784 14.4426C17.6321 14.0842 17.4177 13.759 17.1476 13.4856L4.92977 0.869865C4.66189 0.594236 4.34319 0.375464 3.99204 0.226166C3.6409 0.0768681 3.26426 3.89259e-08 2.88386 3.43896e-08C2.50345 2.98534e-08 2.12682 0.0768681 1.77567 0.226166C1.42452 0.375464 1.10582 0.594236 0.83794 0.869865Z" fill="#1687A7"/>
</svg>
