<svg width="59" height="59" viewBox="0 0 59 59" fill="none" xmlns="http://www.w3.org/2000/svg">
<path d="M29.2875 58.3759C45.3333 58.3759 58.341 45.5087 58.341 29.6362C58.341 13.7637 45.3333 0.896484 29.2875 0.896484C13.2418 0.896484 0.234131 13.7637 0.234131 29.6362C0.234131 45.5087 13.2418 58.3759 29.2875 58.3759Z" fill="#004098"/>
<path d="M11.5922 31.7916C11.5458 31.7916 11.4994 31.7916 11.4704 31.7859C10.2587 31.7228 9.34259 30.7076 9.41216 29.5147C10.2413 15.0731 22.0516 10.634 22.5502 10.4562C23.6808 10.0433 24.939 10.6168 25.3448 11.7409C25.7623 12.8478 25.1883 14.0867 24.0519 14.4939C23.646 14.6487 14.4157 18.2333 13.7606 29.7498C13.6968 30.9084 12.7343 31.7916 11.5922 31.7916Z" fill="white"/>
</svg>
