<svg width="59" height="59" viewBox="0 0 59 59" fill="none" xmlns="http://www.w3.org/2000/svg">
<path d="M29.2875 58.2724C45.3333 58.2724 58.3409 45.4052 58.3409 29.5327C58.3409 13.6602 45.3333 0.792969 29.2875 0.792969C13.2418 0.792969 0.234131 13.6602 0.234131 29.5327C0.234131 45.4052 13.2418 58.2724 29.2875 58.2724Z" fill="#009944"/>
<path d="M11.5922 31.6875C11.5458 31.6875 11.4994 31.6875 11.4704 31.6817C10.2587 31.6186 9.34259 30.6035 9.41216 29.4163C10.2413 14.9747 22.0517 10.5298 22.5503 10.3521C23.6809 9.93911 24.939 10.5184 25.3449 11.6368C25.7623 12.7494 25.1883 13.9825 24.0519 14.3955C23.6461 14.5503 14.4158 18.1349 13.7606 29.6514C13.6968 30.8042 12.7344 31.6875 11.5922 31.6875Z" fill="white"/>
</svg>
