<svg width="59" height="58" viewBox="0 0 59 58" fill="none" xmlns="http://www.w3.org/2000/svg">
<path d="M29.2817 57.4679C45.3242 57.4679 58.3293 44.6033 58.3293 28.734C58.3293 12.8646 45.3242 0 29.2817 0C13.2392 0 0.234131 12.8646 0.234131 28.734C0.234131 44.6033 13.2392 57.4679 29.2817 57.4679Z" fill="black"/>
<path d="M11.5865 30.8836C11.5402 30.8836 11.4938 30.8836 11.4648 30.8836C10.2588 30.8148 9.33695 29.7996 9.40653 28.6124C10.224 14.1823 22.0402 9.73746 22.5388 9.55393C23.6636 9.14099 24.9217 9.71452 25.3276 10.8329C25.7451 11.9513 25.1711 13.1844 24.0405 13.5973C23.6288 13.7522 14.3985 17.331 13.7491 28.8476C13.6912 30.0004 12.7287 30.8836 11.5865 30.8836Z" fill="white"/>
</svg>
