<svg width="61" height="61" viewBox="0 0 61 61" fill="none" xmlns="http://www.w3.org/2000/svg">
<path d="M30.4968 59.384C46.5394 59.384 59.5444 46.5193 59.5444 30.65C59.5444 14.7807 46.5394 1.91602 30.4968 1.91602C14.4543 1.91602 1.44922 14.7807 1.44922 30.65C1.44922 46.5193 14.4543 59.384 30.4968 59.384Z" fill="white"/>
<path d="M30.5029 60.8161C13.6831 60.8161 0 47.2864 0 30.6483C0 14.0101 13.6831 0.480469 30.5029 0.480469C47.3169 0.480469 61 14.0101 61 30.6483C61 47.2864 47.3169 60.8161 30.5029 60.8161ZM30.5029 3.34813C15.2833 3.34813 2.89896 15.593 2.89896 30.6483C2.89896 45.7035 15.2833 57.9484 30.5029 57.9484C45.7224 57.9484 58.101 45.7035 58.101 30.6483C58.101 15.593 45.7166 3.34813 30.5029 3.34813Z" fill="#C9CACA"/>
<path d="M12.802 32.7996C12.7556 32.7996 12.7092 32.7996 12.6802 32.7996C11.4743 32.7308 10.5524 31.7156 10.6162 30.5342C11.4453 16.0984 23.2556 11.6535 23.7601 11.4699C24.8849 11.057 26.143 11.6305 26.5489 12.7489C26.9663 13.8673 26.3923 15.1004 25.2617 15.5133C24.8501 15.6739 15.6256 19.2528 14.9704 30.7693C14.9124 31.9164 13.95 32.7996 12.802 32.7996Z" fill="#C9CACA"/>
</svg>
