<svg width="59" height="59" viewBox="0 0 59 59" fill="none" xmlns="http://www.w3.org/2000/svg">
<path d="M29.2817 58.0519C45.3243 58.0519 58.3293 45.1873 58.3293 29.318C58.3293 13.4486 45.3243 0.583984 29.2817 0.583984C13.2392 0.583984 0.234131 13.4486 0.234131 29.318C0.234131 45.1873 13.2392 58.0519 29.2817 58.0519Z" fill="#FFF100"/>
<path d="M11.5808 31.4676C11.5345 31.4676 11.4881 31.4676 11.4591 31.4676C10.2531 31.3988 9.32545 30.3836 9.39503 29.2021C10.2241 14.7663 22.0345 10.3214 22.5447 10.1379C23.6637 9.72497 24.9219 10.2985 25.3277 11.4169C25.7452 12.5353 25.1712 13.7684 24.0464 14.1813C23.6289 14.3362 14.3986 17.915 13.7551 29.4316C13.6855 30.5844 12.723 31.4676 11.5808 31.4676Z" fill="white"/>
</svg>
