<svg width="59" height="59" viewBox="0 0 59 59" fill="none" xmlns="http://www.w3.org/2000/svg">
<path d="M29.2817 58.1554C45.3243 58.1554 58.3293 45.2908 58.3293 29.4215C58.3293 13.5521 45.3243 0.6875 29.2817 0.6875C13.2392 0.6875 0.234131 13.5521 0.234131 29.4215C0.234131 45.2908 13.2392 58.1554 29.2817 58.1554Z" fill="#E60012"/>
<path d="M11.5865 31.5718C11.5402 31.5718 11.4938 31.5718 11.4648 31.5718C10.2588 31.5029 9.33695 30.4878 9.40653 29.3006C10.2298 14.8648 22.0402 10.4256 22.5446 10.2421C23.6694 9.82914 24.9276 10.3969 25.3334 11.5211C25.7509 12.6337 25.1769 13.8725 24.0463 14.2798C23.6346 14.4346 14.4043 18.0134 13.755 29.53C13.6912 30.6885 12.7287 31.5718 11.5865 31.5718Z" fill="white"/>
</svg>
