<svg width="69" height="68" viewBox="0 0 69 68" fill="none" xmlns="http://www.w3.org/2000/svg">
<path d="M34.5 40.8C35.1823 40.8 35.8494 40.6006 36.4167 40.227C36.9841 39.8534 37.4263 39.3224 37.6874 38.7011C37.9485 38.0799 38.0168 37.3962 37.8837 36.7367C37.7506 36.0772 37.422 35.4713 36.9395 34.9958C36.457 34.5203 35.8423 34.1965 35.1731 34.0653C34.5038 33.9341 33.8101 34.0015 33.1797 34.2588C32.5493 34.5161 32.0105 34.9519 31.6314 35.5111C31.2523 36.0702 31.05 36.7275 31.05 37.4C31.05 38.3017 31.4135 39.1665 32.0605 39.8042C32.7075 40.4418 33.585 40.8 34.5 40.8ZM51.75 40.8C52.4323 40.8 53.0994 40.6006 53.6667 40.227C54.2341 39.8534 54.6763 39.3224 54.9374 38.7011C55.1985 38.0799 55.2668 37.3962 55.1337 36.7367C55.0006 36.0772 54.672 35.4713 54.1895 34.9958C53.707 34.5203 53.0923 34.1965 52.4231 34.0653C51.7538 33.9341 51.0602 34.0015 50.4297 34.2588C49.7993 34.5161 49.2605 34.9519 48.8814 35.5111C48.5023 36.0702 48.3 36.7275 48.3 37.4C48.3 38.3017 48.6635 39.1665 49.3105 39.8042C49.9575 40.4418 50.835 40.8 51.75 40.8ZM34.5 54.4C35.1823 54.4 35.8494 54.2006 36.4167 53.827C36.9841 53.4534 37.4263 52.9224 37.6874 52.3011C37.9485 51.6799 38.0168 50.9962 37.8837 50.3367C37.7506 49.6772 37.422 49.0713 36.9395 48.5958C36.457 48.1203 35.8423 47.7965 35.1731 47.6653C34.5038 47.5341 33.8101 47.6015 33.1797 47.8588C32.5493 48.1161 32.0105 48.5519 31.6314 49.1111C31.2523 49.6702 31.05 50.3275 31.05 51C31.05 51.9017 31.4135 52.7665 32.0605 53.4042C32.7075 54.0418 33.585 54.4 34.5 54.4ZM51.75 54.4C52.4323 54.4 53.0994 54.2006 53.6667 53.827C54.2341 53.4534 54.6763 52.9224 54.9374 52.3011C55.1985 51.6799 55.2668 50.9962 55.1337 50.3367C55.0006 49.6772 54.672 49.0713 54.1895 48.5958C53.707 48.1203 53.0923 47.7965 52.4231 47.6653C51.7538 47.5341 51.0602 47.6015 50.4297 47.8588C49.7993 48.1161 49.2605 48.5519 48.8814 49.1111C48.5023 49.6702 48.3 50.3275 48.3 51C48.3 51.9017 48.6635 52.7665 49.3105 53.4042C49.9575 54.0418 50.835 54.4 51.75 54.4ZM17.25 40.8C17.9323 40.8 18.5994 40.6006 19.1667 40.227C19.7341 39.8534 20.1763 39.3224 20.4374 38.7011C20.6985 38.0799 20.7668 37.3962 20.6337 36.7367C20.5006 36.0772 20.172 35.4713 19.6895 34.9958C19.207 34.5203 18.5923 34.1965 17.9231 34.0653C17.2538 33.9341 16.5601 34.0015 15.9297 34.2588C15.2993 34.5161 14.7605 34.9519 14.3814 35.5111C14.0023 36.0702 13.8 36.7275 13.8 37.4C13.8 38.3017 14.1635 39.1665 14.8105 39.8042C15.4575 40.4418 16.335 40.8 17.25 40.8ZM58.65 6.8H55.2V3.4C55.2 2.49826 54.8365 1.63346 54.1895 0.995837C53.5425 0.358213 52.665 0 51.75 0C50.835 0 49.9575 0.358213 49.3105 0.995837C48.6635 1.63346 48.3 2.49826 48.3 3.4V6.8H20.7V3.4C20.7 2.49826 20.3365 1.63346 19.6895 0.995837C19.0425 0.358213 18.165 0 17.25 0C16.335 0 15.4575 0.358213 14.8105 0.995837C14.1635 1.63346 13.8 2.49826 13.8 3.4V6.8H10.35C7.60501 6.8 4.97245 7.87464 3.03145 9.78751C1.09044 11.7004 0 14.2948 0 17V57.8C0 60.5052 1.09044 63.0996 3.03145 65.0125C4.97245 66.9254 7.60501 68 10.35 68H58.65C61.395 68 64.0276 66.9254 65.9686 65.0125C67.9096 63.0996 69 60.5052 69 57.8V17C69 14.2948 67.9096 11.7004 65.9686 9.78751C64.0276 7.87464 61.395 6.8 58.65 6.8V6.8ZM62.1 57.8C62.1 58.7017 61.7365 59.5665 61.0895 60.2042C60.4425 60.8418 59.565 61.2 58.65 61.2H10.35C9.435 61.2 8.55748 60.8418 7.91048 60.2042C7.26348 59.5665 6.9 58.7017 6.9 57.8V27.2H62.1V57.8ZM62.1 20.4H6.9V17C6.9 16.0983 7.26348 15.2335 7.91048 14.5958C8.55748 13.9582 9.435 13.6 10.35 13.6H58.65C59.565 13.6 60.4425 13.9582 61.0895 14.5958C61.7365 15.2335 62.1 16.0983 62.1 17V20.4ZM17.25 54.4C17.9323 54.4 18.5994 54.2006 19.1667 53.827C19.7341 53.4534 20.1763 52.9224 20.4374 52.3011C20.6985 51.6799 20.7668 50.9962 20.6337 50.3367C20.5006 49.6772 20.172 49.0713 19.6895 48.5958C19.207 48.1203 18.5923 47.7965 17.9231 47.6653C17.2538 47.5341 16.5601 47.6015 15.9297 47.8588C15.2993 48.1161 14.7605 48.5519 14.3814 49.1111C14.0023 49.6702 13.8 50.3275 13.8 51C13.8 51.9017 14.1635 52.7665 14.8105 53.4042C15.4575 54.0418 16.335 54.4 17.25 54.4Z" fill="#276678"/>
</svg>
