<svg width="59" height="59" viewBox="0 0 59 59" fill="none" xmlns="http://www.w3.org/2000/svg">
<path d="M29.5 35.4C30.0835 35.4 30.6538 35.227 31.1389 34.9028C31.6241 34.5787 32.0022 34.118 32.2254 33.5789C32.4487 33.0399 32.5071 32.4467 32.3933 31.8745C32.2795 31.3022 31.9985 30.7766 31.586 30.364C31.1734 29.9515 30.6478 29.6705 30.0755 29.5567C29.5033 29.4429 28.9101 29.5013 28.3711 29.7246C27.832 29.9478 27.3713 30.3259 27.0472 30.8111C26.723 31.2962 26.55 31.8665 26.55 32.45C26.55 33.2324 26.8608 33.9827 27.414 34.536C27.9673 35.0892 28.7176 35.4 29.5 35.4ZM44.25 35.4C44.8335 35.4 45.4038 35.227 45.8889 34.9028C46.3741 34.5787 46.7522 34.118 46.9754 33.5789C47.1987 33.0399 47.2571 32.4467 47.1433 31.8745C47.0295 31.3022 46.7485 30.7766 46.336 30.364C45.9234 29.9515 45.3978 29.6705 44.8255 29.5567C44.2533 29.4429 43.6601 29.5013 43.1211 29.7246C42.582 29.9478 42.1213 30.3259 41.7972 30.8111C41.473 31.2962 41.3 31.8665 41.3 32.45C41.3 33.2324 41.6108 33.9827 42.164 34.536C42.7173 35.0892 43.4676 35.4 44.25 35.4ZM29.5 47.2C30.0835 47.2 30.6538 47.027 31.1389 46.7028C31.6241 46.3787 32.0022 45.918 32.2254 45.3789C32.4487 44.8399 32.5071 44.2467 32.3933 43.6745C32.2795 43.1022 31.9985 42.5766 31.586 42.164C31.1734 41.7515 30.6478 41.4705 30.0755 41.3567C29.5033 41.2429 28.9101 41.3013 28.3711 41.5246C27.832 41.7478 27.3713 42.1259 27.0472 42.6111C26.723 43.0962 26.55 43.6665 26.55 44.25C26.55 45.0324 26.8608 45.7827 27.414 46.336C27.9673 46.8892 28.7176 47.2 29.5 47.2ZM44.25 47.2C44.8335 47.2 45.4038 47.027 45.8889 46.7028C46.3741 46.3787 46.7522 45.918 46.9754 45.3789C47.1987 44.8399 47.2571 44.2467 47.1433 43.6745C47.0295 43.1022 46.7485 42.5766 46.336 42.164C45.9234 41.7515 45.3978 41.4705 44.8255 41.3567C44.2533 41.2429 43.6601 41.3013 43.1211 41.5246C42.582 41.7478 42.1213 42.1259 41.7972 42.6111C41.473 43.0962 41.3 43.6665 41.3 44.25C41.3 45.0324 41.6108 45.7827 42.164 46.336C42.7173 46.8892 43.4676 47.2 44.25 47.2ZM14.75 35.4C15.3335 35.4 15.9038 35.227 16.3889 34.9028C16.8741 34.5787 17.2522 34.118 17.4754 33.5789C17.6987 33.0399 17.7571 32.4467 17.6433 31.8745C17.5295 31.3022 17.2485 30.7766 16.836 30.364C16.4234 29.9515 15.8978 29.6705 15.3255 29.5567C14.7533 29.4429 14.1601 29.5013 13.6211 29.7246C13.082 29.9478 12.6213 30.3259 12.2972 30.8111C11.973 31.2962 11.8 31.8665 11.8 32.45C11.8 33.2324 12.1108 33.9827 12.664 34.536C13.2173 35.0892 13.9676 35.4 14.75 35.4ZM50.15 5.9H47.2V2.95C47.2 2.16761 46.8892 1.41727 46.336 0.864035C45.7827 0.310803 45.0324 0 44.25 0C43.4676 0 42.7173 0.310803 42.164 0.864035C41.6108 1.41727 41.3 2.16761 41.3 2.95V5.9H17.7V2.95C17.7 2.16761 17.3892 1.41727 16.836 0.864035C16.2827 0.310803 15.5324 0 14.75 0C13.9676 0 13.2173 0.310803 12.664 0.864035C12.1108 1.41727 11.8 2.16761 11.8 2.95V5.9H8.85C6.50283 5.9 4.2518 6.83241 2.59211 8.49211C0.932408 10.1518 0 12.4028 0 14.75V50.15C0 52.4972 0.932408 54.7482 2.59211 56.4079C4.2518 58.0676 6.50283 59 8.85 59H50.15C52.4972 59 54.7482 58.0676 56.4079 56.4079C58.0676 54.7482 59 52.4972 59 50.15V14.75C59 12.4028 58.0676 10.1518 56.4079 8.49211C54.7482 6.83241 52.4972 5.9 50.15 5.9V5.9ZM53.1 50.15C53.1 50.9324 52.7892 51.6827 52.236 52.236C51.6827 52.7892 50.9324 53.1 50.15 53.1H8.85C8.06761 53.1 7.31727 52.7892 6.76404 52.236C6.2108 51.6827 5.9 50.9324 5.9 50.15V23.6H53.1V50.15ZM53.1 17.7H5.9V14.75C5.9 13.9676 6.2108 13.2173 6.76404 12.664C7.31727 12.1108 8.06761 11.8 8.85 11.8H50.15C50.9324 11.8 51.6827 12.1108 52.236 12.664C52.7892 13.2173 53.1 13.9676 53.1 14.75V17.7ZM14.75 47.2C15.3335 47.2 15.9038 47.027 16.3889 46.7028C16.8741 46.3787 17.2522 45.918 17.4754 45.3789C17.6987 44.8399 17.7571 44.2467 17.6433 43.6745C17.5295 43.1022 17.2485 42.5766 16.836 42.164C16.4234 41.7515 15.8978 41.4705 15.3255 41.3567C14.7533 41.2429 14.1601 41.3013 13.6211 41.5246C13.082 41.7478 12.6213 42.1259 12.2972 42.6111C11.973 43.0962 11.8 43.6665 11.8 44.25C11.8 45.0324 12.1108 45.7827 12.664 46.336C13.2173 46.8892 13.9676 47.2 14.75 47.2Z" fill="#1687A7"/>
</svg>
