<svg width="72" height="72" viewBox="0 0 72 72" fill="none" xmlns="http://www.w3.org/2000/svg">
<path d="M18 28.7917H25.2C26.1548 28.7917 27.0705 28.4125 27.7456 27.7375C28.4207 27.0626 28.8 26.1472 28.8 25.1927C28.8 24.2382 28.4207 23.3228 27.7456 22.6479C27.0705 21.9729 26.1548 21.5937 25.2 21.5937H18C17.0452 21.5937 16.1295 21.9729 15.4544 22.6479C14.7793 23.3228 14.4 24.2382 14.4 25.1927C14.4 26.1472 14.7793 27.0626 15.4544 27.7375C16.1295 28.4125 17.0452 28.7917 18 28.7917ZM68.4 7.19791H39.6V3.59896C39.6 2.64445 39.2207 1.72905 38.5456 1.05411C37.8705 0.379175 36.9548 0 36 0C35.0452 0 34.1295 0.379175 33.4544 1.05411C32.7793 1.72905 32.4 2.64445 32.4 3.59896V7.19791H3.6C2.64522 7.19791 1.72955 7.57709 1.05442 8.25202C0.379284 8.92696 0 9.84237 0 10.7969V46.7864C0 49.6499 1.13785 52.3962 3.16325 54.421C5.18864 56.4458 7.93566 57.5833 10.8 57.5833H27.324L19.044 65.8249C18.7066 66.1595 18.4388 66.5575 18.256 66.9961C18.0732 67.4347 17.9791 67.9051 17.9791 68.3802C17.9791 68.8553 18.0732 69.3257 18.256 69.7643C18.4388 70.2028 18.7066 70.6009 19.044 70.9354C19.3787 71.2728 19.7768 71.5405 20.2155 71.7232C20.6542 71.9059 21.1248 72 21.6 72C22.0752 72 22.5458 71.9059 22.9845 71.7232C23.4232 71.5405 23.8213 71.2728 24.156 70.9354L32.4 62.6578V68.3802C32.4 69.3347 32.7793 70.2501 33.4544 70.925C34.1295 71.6 35.0452 71.9791 36 71.9791C36.9548 71.9791 37.8705 71.6 38.5456 70.925C39.2207 70.2501 39.6 69.3347 39.6 68.3802V62.6578L47.844 70.9354C48.1787 71.2728 48.5768 71.5405 49.0155 71.7232C49.4542 71.9059 49.9248 72 50.4 72C50.8752 72 51.3458 71.9059 51.7845 71.7232C52.2232 71.5405 52.6213 71.2728 52.956 70.9354C53.2934 70.6009 53.5612 70.2028 53.744 69.7643C53.9268 69.3257 54.0209 68.8553 54.0209 68.3802C54.0209 67.9051 53.9268 67.4347 53.744 66.9961C53.5612 66.5575 53.2934 66.1595 52.956 65.8249L44.676 57.5833H61.2C64.0643 57.5833 66.8114 56.4458 68.8368 54.421C70.8621 52.3962 72 49.6499 72 46.7864V10.7969C72 9.84237 71.6207 8.92696 70.9456 8.25202C70.2705 7.57709 69.3548 7.19791 68.4 7.19791V7.19791ZM64.8 46.7864C64.8 47.7409 64.4207 48.6563 63.7456 49.3313C63.0705 50.0062 62.1548 50.3854 61.2 50.3854H10.8C9.84522 50.3854 8.92955 50.0062 8.25442 49.3313C7.57929 48.6563 7.2 47.7409 7.2 46.7864V14.3958H64.8V46.7864ZM18 43.1875H39.6C40.5548 43.1875 41.4705 42.8083 42.1456 42.1334C42.8207 41.4584 43.2 40.543 43.2 39.5885C43.2 38.634 42.8207 37.7186 42.1456 37.0437C41.4705 36.3687 40.5548 35.9896 39.6 35.9896H18C17.0452 35.9896 16.1295 36.3687 15.4544 37.0437C14.7793 37.7186 14.4 38.634 14.4 39.5885C14.4 40.543 14.7793 41.4584 15.4544 42.1334C16.1295 42.8083 17.0452 43.1875 18 43.1875Z" fill="#276678"/>
</svg>
