<svg width="353" height="130" viewBox="0 0 353 130" fill="none" xmlns="http://www.w3.org/2000/svg">
<path d="M103.359 119.763C102.622 116.522 97.6775 112.333 88.3928 107.426C79.108 102.519 68.1862 106.731 68.1862 106.731L68.3454 102.103C83.7568 96.4986 94.7078 82.256 94.7078 65.568C94.7078 57.0408 91.8448 49.1546 86.9918 42.7305C83.4619 42.7835 50.0019 48.8822 46.4766 49.0809C26.8385 50.1874 37.251 47.1365 17.5661 47.3788C14.5691 52.8115 12.8719 59.0002 12.8719 65.568C12.8719 79.0794 20.0502 90.989 30.9625 98.0083V107.087C30.9625 107.087 21.6625 102.91 13.5046 107.087C5.34678 111.264 0.955505 114.924 0.223558 117.851C-0.508389 120.779 0.223558 126.634 7.54241 127.366C14.8613 128.097 33.1581 127.366 38.2813 121.511C41.7274 117.572 40.5376 108.003 39.3893 102.16C43.8692 103.769 48.7213 104.652 53.7901 104.652C55.1625 104.652 56.5186 104.586 57.8563 104.46C56.6453 110.666 55.9699 118.546 59.1708 122.262C64.8794 128.889 86.0297 130.42 94.5286 129.909C103.027 129.398 104.095 123.004 103.359 119.763ZM31.17 77.9011C26.0464 76.8301 25.4196 63.3292 25.4196 63.3292L42.35 71.1159C41.6336 72.5716 36.2938 78.9723 31.17 77.9011ZM48.5958 70.168L61.4242 60.9749L74.3128 52.3237C74.3128 52.3237 74.2236 78.7455 65.2765 78.8589C56.3295 78.9723 49.6103 71.8049 48.5958 70.168Z" fill="#276678"/>
<path d="M105.82 18.5287C103.722 15.9862 101.08 14.0912 98.1305 12.6257C93.2094 10.1808 87.9742 8.92155 82.5243 8.42407C77.0904 7.92802 71.8032 8.54304 66.6582 10.3626C65.0467 10.9325 65.0923 10.8975 64.0152 9.63665C62.2788 7.60417 60.5209 5.58649 58.6928 3.63661C55.7057 0.450116 52.0529 -0.608349 47.7726 0.327853C45.121 0.907945 42.6138 1.87373 40.1254 2.90939C37.0996 4.16862 34.0734 5.40792 30.8655 6.16247C28.5844 6.69879 26.3115 7.29429 24.0776 7.99871C22.3217 8.55229 20.752 9.5148 19.7539 11.131C17.7299 14.4081 16.5886 18.0101 16.1252 21.8151C15.5421 26.6046 16.2461 31.2531 17.6424 35.8542C18.3712 38.2562 19.8575 39.5567 22.2516 39.8703C23.7801 40.0706 25.3214 40.2576 26.8603 40.3059C27.0584 40.3121 27.2567 40.316 27.4548 40.3174C31.8668 40.3472 36.2141 39.6716 40.545 38.8921C45.9142 37.9259 51.1693 36.5872 56.1082 34.193C59.1996 32.6946 62.1179 30.9451 64.6314 28.5678C66.6949 26.6163 68.4691 24.4599 69.6381 21.8459C69.7769 21.5358 69.8917 21.3712 70.0282 21.3509C70.1648 21.3305 70.3232 21.4545 70.5487 21.7216C71.2387 22.539 71.9219 23.3671 72.5433 24.2368C73.3739 25.3996 71.2788 30.6085 70.2585 31.7249C67.2701 34.9961 63.5481 37.3148 59.6771 39.3812C55.8772 41.4096 51.9002 43.0323 47.7884 44.3328C42.4137 46.0328 36.9471 47.1585 31.2847 47.1133C28.376 47.0901 21.3958 45.5991 20.7409 45.3477C18.0096 44.2991 17.4237 43.3687 17.5824 40.4477C17.5916 40.2763 17.5684 40.1031 17.555 39.8207C17.1829 40.1162 16.8685 40.3096 16.6246 40.5691C15.3662 41.9079 14.1092 43.2485 12.8831 44.6164C10.7951 46.9452 8.26821 48.644 5.42816 49.9073C4.98431 50.1048 4.5421 50.3064 4.00146 50.5501C4.17592 50.5887 4.2201 50.6125 4.25832 50.6051C8.03293 49.88 11.8423 49.6691 15.6446 50.1985C19.8127 50.7786 23.9687 51.4684 28.1056 52.2419C35.477 53.6203 42.8728 54.7661 50.3751 55.1082C50.8818 55.1312 51.3845 55.1534 51.8805 55.1752C52.4096 55.1347 52.9349 55.1569 53.4562 55.242C53.6058 55.2321 53.7554 55.2222 53.905 55.2124L54.0279 55.2358C54.2099 55.2325 54.4238 55.2364 54.6793 55.2424C54.7259 55.2434 54.7734 55.251 54.8188 55.2446C54.9172 55.2309 55.0072 55.2311 55.0933 55.2395C55.8649 55.147 56.6429 55.1629 57.4112 55.2802C58.6347 55.2543 59.7065 55.2479 60.7759 55.2052C68.1685 54.9095 75.5537 54.5421 82.7678 52.6874C89.5787 50.9362 95.9176 48.2172 101.366 43.6547C103.779 41.6344 105.838 39.3233 107.358 36.5562C110.653 30.5584 110.103 23.7165 105.82 18.5287Z" fill="#333333"/>
<path d="M146.303 31.4883C148.909 31.4883 151.426 31.9773 153.854 32.9551C154.997 33.4133 155.791 33.6426 156.238 33.6426C156.559 33.6426 157.077 33.5738 157.791 33.4363C158.023 33.3905 158.282 33.3675 158.567 33.3675C159.496 33.3675 160.308 33.7343 161.004 34.4676C162.718 36.2402 163.575 38.4405 163.575 41.0683C163.575 42.9173 162.834 44.2696 161.353 45.1251C160.549 45.5833 159.647 45.8126 158.648 45.8126C157.737 45.8126 156.996 45.6447 156.425 45.3084C155.854 44.9724 155.301 44.3765 154.765 43.5206C153.997 42.3138 153.373 41.4464 152.891 40.9193C152.408 40.3923 151.819 39.9147 151.123 39.4869C149.391 38.4479 147.579 37.9285 145.687 37.9285C143.848 37.9285 142.388 38.4979 141.309 39.6361C140.228 40.7745 139.689 42.2986 139.689 44.2084C139.689 46.8366 140.465 49.243 142.018 51.428C144.125 54.3465 147.142 55.8055 151.07 55.8055C152.516 55.8055 153.948 55.5992 155.368 55.1866C156.787 54.7741 157.889 54.2395 158.675 53.5823C159.353 53.0322 159.907 52.7571 160.335 52.7571C160.96 52.7571 161.495 53.0055 161.942 53.502C162.388 53.9986 162.611 54.5985 162.611 55.301C162.611 56.1873 162.299 57.1804 161.674 58.2806C161.049 59.3806 160.299 60.244 159.425 60.8704C159.05 61.1305 158.273 61.3596 157.095 61.5581C156.416 61.6652 155.515 61.9477 154.39 62.4062C151.748 63.4907 148.998 64.0334 146.142 64.0334C143.161 64.0334 140.188 63.4603 137.225 62.3145C133.779 60.985 131.057 58.9453 129.057 56.1951C127.093 53.5215 126.112 50.7252 126.112 47.8067C126.112 44.4147 127.344 41.3207 129.807 38.5244C131.95 36.0949 134.743 34.2385 138.189 32.9551C140.813 31.9775 143.518 31.4883 146.303 31.4883Z" fill="#333333"/>
<path d="M181.891 40.5645C185.158 40.5645 188.024 41.2904 190.487 42.7418C192.255 43.7812 193.674 45.1333 194.745 46.7985C195.852 48.5405 196.405 50.3588 196.405 52.2532C196.405 55.569 194.629 58.388 191.076 60.7105C187.684 62.926 183.802 64.0338 179.428 64.0338C175.16 64.0338 171.706 62.9949 169.064 60.9168C166.493 58.8999 165.208 56.2719 165.208 53.0324C165.208 49.4267 166.779 46.4776 169.921 44.1856C173.206 41.7717 177.196 40.5645 181.891 40.5645ZM179.749 45.8588C178.963 45.8588 178.334 46.1073 177.861 46.6037C177.387 47.1004 177.151 47.7612 177.151 48.5863C177.151 49.503 177.352 50.7521 177.754 52.3336C178.155 53.915 178.633 55.317 179.186 56.5393C179.74 57.7923 180.641 58.4187 181.891 58.4187C183.48 58.4187 184.275 57.5556 184.275 55.8287C184.275 54.5452 184.074 53.0863 183.672 51.4512C183.271 49.8163 182.784 48.487 182.212 47.4633C181.623 46.4243 180.802 45.8897 179.749 45.8588Z" fill="#333333"/>
<path d="M229.638 33.9618V54.8871C229.638 56.0789 229.696 56.8431 229.813 57.1789C229.929 57.5152 230.255 57.8436 230.79 58.1644C231.433 58.5464 231.866 58.8828 232.089 59.1727C232.312 59.4633 232.424 59.8146 232.424 60.2269C232.424 61.4495 230.986 62.3812 228.112 63.0229C225.524 63.588 222.935 63.871 220.347 63.871C219.775 63.871 219.405 63.7982 219.235 63.6532C219.065 63.5079 218.954 63.1606 218.901 62.6105C218.811 61.8311 218.49 61.4417 217.936 61.4417C217.633 61.4417 217.16 61.6708 216.517 62.1293C214.696 63.3977 212.67 64.0317 210.439 64.0317C207.671 64.0317 205.181 63.1532 202.967 61.3959C201.664 60.3417 200.611 59.1269 199.807 57.7518C198.736 55.964 198.201 54.1535 198.201 52.3199C198.201 50.1656 198.897 48.0877 200.289 46.0858C201.575 44.2372 203.325 42.8163 205.538 41.8228C207.395 40.9977 209.225 40.5851 211.028 40.5851C213.099 40.5851 214.955 40.9827 216.598 41.7769C216.866 41.8994 217.08 41.9602 217.241 41.9602C217.812 41.9602 218.097 41.3035 218.097 39.9892C218.097 39.4241 217.941 38.9922 217.629 38.6942C217.316 38.3963 216.759 38.1406 215.955 37.9265C214.83 37.6212 214.268 37.0865 214.268 36.3221C214.268 35.2069 215.562 34.336 218.151 33.7093C222.721 32.6245 225.783 32.082 227.336 32.082C228.871 32.0824 229.638 32.7092 229.638 33.9618ZM215.098 45.4901C213.937 45.4901 213.018 46.0172 212.339 47.0715C211.429 48.4775 210.974 50.326 210.974 52.6181C210.974 54.6962 211.411 56.2622 212.286 57.3165C212.911 58.0807 213.759 58.4625 214.83 58.4625C215.99 58.4625 216.834 57.8859 217.361 56.7321C217.887 55.5787 218.15 53.7182 218.15 51.1513C218.15 48.7985 217.838 47.2322 217.213 46.4528C216.731 45.8419 216.026 45.5209 215.098 45.4901Z" fill="#333333"/>
<path d="M258.747 53.1473H246.161C245.608 53.1473 245.331 53.3536 245.331 53.7662C245.331 54.7596 245.961 55.6953 247.219 56.5738C248.478 57.4527 249.83 57.8918 251.276 57.8918C252.133 57.8918 253.084 57.7506 254.128 57.4679C255.173 57.1853 256.034 56.8376 256.712 56.425C257.319 56.0582 257.801 55.8749 258.158 55.8749C258.623 55.8749 259.078 56.1195 259.524 56.6083C259.97 57.0974 260.193 57.6017 260.193 58.1209C260.193 59.2211 259.39 60.2831 257.783 61.3066C254.945 63.1252 251.668 64.034 247.956 64.034C244.207 64.034 241.064 63.1021 238.529 61.238C237.298 60.3211 236.28 59.2135 235.477 57.9146C234.423 56.1881 233.897 54.3699 233.897 52.4599C233.897 49.893 234.807 47.586 236.628 45.5383C238.199 43.766 240.199 42.4443 242.627 41.5734C244.447 40.9167 246.42 40.5879 248.545 40.5879C251.937 40.5879 254.82 41.4131 257.194 43.0632C258.39 43.8884 259.354 44.8663 260.086 45.9969C260.926 47.2804 261.345 48.5335 261.345 49.7557C261.345 50.749 261.104 51.5626 260.622 52.1965C260.14 52.8304 259.515 53.1473 258.747 53.1473ZM246.857 48.8614H249.562C250.704 48.8614 251.276 48.411 251.276 47.5091C251.276 46.6841 250.999 46.0117 250.446 45.4923C249.893 44.973 249.169 44.7131 248.277 44.7131C247.277 44.7131 246.491 45.0492 245.92 45.7216C245.385 46.3483 245.117 46.982 245.117 47.6238C245.117 48.082 245.246 48.403 245.505 48.5865C245.764 48.7698 246.215 48.8614 246.857 48.8614Z" fill="#333333"/>
<path d="M152.408 110.252L149.195 116.417C148.641 117.457 148.195 118.156 147.856 118.515C147.517 118.874 147.142 119.053 146.731 119.053C146.338 119.053 145.99 118.908 145.687 118.618C145.49 118.434 145.04 117.762 144.335 116.601C143.629 115.44 143.044 114.409 142.581 113.507L139.046 106.7C138.564 105.753 138.055 105.279 137.519 105.279C136.948 105.279 136.636 105.684 136.582 106.493C136.457 108.296 136.395 109.962 136.395 111.49C136.395 113.079 136.484 114.156 136.662 114.721C136.787 115.058 136.952 115.302 137.158 115.455C137.363 115.608 137.921 115.883 138.831 116.28C139.421 116.54 139.715 116.99 139.715 117.632C139.715 119.344 137.153 120.199 132.03 120.199C127.709 120.199 125.549 119.366 125.549 117.701C125.549 117.273 125.66 116.964 125.884 116.772C126.107 116.582 126.683 116.295 127.611 115.913C128.2 115.684 128.597 115.371 128.803 114.973C129.008 114.576 129.182 113.805 129.325 112.658C129.486 111.436 129.637 109.431 129.78 106.642C129.923 103.854 129.994 101.466 129.994 99.4801C129.994 96.9898 129.771 95.3013 129.325 94.415C129.164 94.1097 128.981 93.8803 128.776 93.7274C128.571 93.5748 128.182 93.3761 127.611 93.1315C126.343 92.6123 125.71 91.9397 125.71 91.1147C125.71 90.58 125.946 90.0913 126.42 89.6479C126.892 89.2049 127.522 88.8915 128.308 88.7082C129.093 88.5097 130.142 88.3379 131.454 88.1924C132.766 88.0476 133.878 87.9746 134.788 87.9746C137.073 87.9746 138.689 88.1351 139.635 88.4561C140.099 88.609 140.465 88.8153 140.733 89.0748C141.001 89.3349 141.384 89.8694 141.885 90.6792L147.454 99.4575C148.061 100.42 148.481 101.008 148.713 101.222C148.945 101.436 149.266 101.543 149.677 101.543C150.034 101.543 150.351 101.429 150.628 101.199C150.904 100.97 151.23 100.543 151.605 99.9159L155.381 93.6132C155.845 92.8036 156.148 92.2763 156.291 92.0318C157.166 90.504 158.032 89.4876 158.889 88.9836C159.977 88.3268 161.959 87.9978 164.834 87.9978C169.886 87.9978 172.412 88.9836 172.412 90.9546C172.412 91.3978 172.314 91.7533 172.118 92.0205C171.921 92.288 171.519 92.6127 170.913 92.9945C170.091 93.5296 169.574 94.3008 169.359 95.3093C168.948 97.418 168.744 99.985 168.744 103.01C168.744 106.907 168.958 110.322 169.386 113.255C169.493 113.974 169.658 114.462 169.881 114.722C170.105 114.982 170.68 115.372 171.609 115.891C172.251 116.258 172.573 116.747 172.573 117.358C172.573 118.427 171.743 119.184 170.082 119.627C169.225 119.871 168.324 120.032 167.378 120.108C166.431 120.184 164.976 120.223 163.013 120.223C159.995 120.223 157.746 120.039 156.264 119.673C154.622 119.26 153.801 118.557 153.801 117.564C153.801 117.197 153.908 116.896 154.122 116.659C154.336 116.422 154.889 115.99 155.782 115.364C156.246 115.043 156.563 114.424 156.733 113.507C156.903 112.591 156.987 111.032 156.987 108.832C156.987 107.61 156.92 106.807 156.787 106.425C156.653 106.044 156.372 105.852 155.943 105.852C155.443 105.852 154.961 106.147 154.497 106.735C154.033 107.322 153.336 108.495 152.408 110.252Z" fill="#333333"/>
<path d="M190.889 96.8926C194.156 96.8926 197.022 97.6184 199.485 99.0699C201.253 100.109 202.672 101.462 203.743 103.127C204.85 104.869 205.404 106.687 205.404 108.581C205.404 111.897 203.627 114.716 200.075 117.039C196.682 119.254 192.8 120.362 188.426 120.362C184.159 120.362 180.704 119.323 178.062 117.245C175.492 115.228 174.206 112.6 174.206 109.361C174.206 105.755 175.777 102.806 178.919 100.514C182.204 98.0998 186.194 96.8926 190.889 96.8926ZM188.747 102.187C187.962 102.187 187.332 102.435 186.859 102.932C186.386 103.428 186.149 104.089 186.149 104.914C186.149 105.831 186.351 107.08 186.752 108.661C187.154 110.243 187.631 111.645 188.185 112.867C188.738 114.12 189.64 114.746 190.889 114.746C192.478 114.746 193.273 113.883 193.273 112.156C193.273 110.873 193.072 109.414 192.67 107.779C192.269 106.144 191.782 104.815 191.211 103.791C190.622 102.752 189.801 102.218 188.747 102.187Z" fill="#333333"/>
<path d="M239.814 105.372L240.189 113.44C240.225 114.051 240.336 114.502 240.524 114.792C240.711 115.082 241.26 115.64 242.171 116.465C242.439 116.709 242.573 117.053 242.573 117.497C242.573 118.505 241.867 119.208 240.457 119.605C239.047 120.002 236.529 120.201 232.906 120.201C230.442 120.201 228.701 120.018 227.684 119.651C226.63 119.269 226.104 118.65 226.104 117.794C226.104 117.489 226.158 117.264 226.264 117.118C226.371 116.973 226.729 116.618 227.335 116.053C228.05 115.411 228.407 113.272 228.407 109.635C228.407 107.527 228.121 105.968 227.55 104.96C227.085 104.15 226.229 103.745 224.979 103.745C223.783 103.745 222.962 104.074 222.515 104.731C222.069 105.388 221.846 106.579 221.846 108.306V112.844C221.846 113.746 221.913 114.364 222.047 114.7C222.181 115.037 222.623 115.686 223.372 116.648C223.568 116.923 223.667 117.237 223.667 117.588C223.667 118.49 222.935 119.154 221.471 119.582C220.007 120.009 217.722 120.224 214.616 120.224C209.652 120.224 207.171 119.345 207.171 117.588C207.171 117.221 207.247 116.943 207.399 116.751C207.55 116.561 207.912 116.289 208.483 115.938C208.947 115.648 209.241 115.315 209.367 114.941C209.492 114.567 209.608 113.646 209.715 112.179C209.839 110.437 209.903 108.612 209.903 106.701C209.903 105.647 209.809 104.956 209.621 104.627C209.434 104.299 208.894 103.898 208.001 103.424C207.233 103.011 206.849 102.507 206.849 101.911C206.849 101.3 207.162 100.8 207.787 100.41C208.411 100.021 209.697 99.5276 211.643 98.9319C213.357 98.4127 215.008 97.9733 216.597 97.6141C218.186 97.2554 219.275 97.0755 219.864 97.0755C220.399 97.0755 220.85 97.2436 221.216 97.5796C221.582 97.916 221.765 98.313 221.765 98.7714C221.765 98.8175 221.756 99.0086 221.738 99.3445C221.72 99.467 221.711 99.5737 221.711 99.6655C221.711 100.399 222.069 100.766 222.783 100.766C223.211 100.766 223.666 100.476 224.148 99.8948C225.684 98.0002 227.915 97.0527 230.843 97.0527C233.093 97.0527 235.021 97.557 236.627 98.5655C237.752 99.2837 238.537 100.128 238.984 101.098C239.43 102.068 239.707 103.493 239.814 105.372Z" fill="#333333"/>
<path d="M254.838 96.9117C255.731 96.9117 257.185 97.08 259.203 97.4159C259.613 97.4772 259.952 97.5076 260.22 97.5076C260.524 97.5076 261.113 97.3699 261.988 97.095C262.398 96.9575 262.746 96.8887 263.032 96.8887C263.853 96.8887 264.683 97.3395 265.522 98.241C266.201 98.9592 266.755 99.746 267.183 100.601C267.611 101.457 267.826 102.198 267.826 102.825C267.826 103.436 267.575 103.944 267.076 104.349C266.576 104.754 265.951 104.956 265.201 104.956C264.576 104.956 264.018 104.826 263.528 104.567C263.036 104.307 262.246 103.734 261.158 102.848C260.015 101.901 259.069 101.427 258.319 101.427C257.819 101.427 257.386 101.584 257.021 101.896C256.655 102.21 256.472 102.58 256.472 103.008C256.472 103.757 257.31 104.46 258.989 105.117C262.006 106.278 264.318 107.546 265.924 108.921C267.281 110.083 267.96 111.504 267.96 113.184C267.96 115.308 266.87 117.081 264.693 118.502C262.818 119.739 260.524 120.358 257.81 120.358C257.114 120.358 255.846 120.259 254.008 120.06C252.276 119.892 251.303 119.808 251.089 119.808C250.857 119.808 250.589 119.831 250.286 119.877C249.768 119.938 249.393 119.968 249.161 119.968C248.321 119.968 247.661 119.785 247.179 119.418C246.447 118.853 245.769 117.963 245.144 116.748C244.519 115.533 244.207 114.491 244.207 113.619C244.207 112.214 244.849 111.511 246.135 111.511C246.635 111.511 247.095 111.652 247.514 111.935C247.933 112.218 248.813 112.97 250.152 114.192C250.884 114.865 251.491 115.327 251.973 115.579C252.455 115.831 252.972 115.957 253.526 115.957C254.115 115.957 254.588 115.824 254.945 115.556C255.302 115.289 255.48 114.934 255.48 114.49C255.48 113.803 254.793 113.176 253.419 112.611C250.544 111.404 248.469 110.158 247.193 108.875C245.916 107.591 245.278 106.11 245.278 104.428C245.278 102.61 245.929 101.044 247.233 99.7299C249.089 97.8514 251.624 96.9117 254.838 96.9117Z" fill="#333333"/>
<path d="M286.329 102.92V110.666C286.329 111.583 286.592 112.332 287.12 112.912C287.646 113.493 288.32 113.783 289.141 113.783C289.838 113.783 290.756 113.508 291.9 112.958C292.167 112.821 292.435 112.752 292.703 112.752C293.131 112.752 293.524 112.973 293.881 113.416C294.238 113.86 294.417 114.341 294.417 114.86C294.417 115.808 293.809 116.717 292.595 117.587C290.06 119.436 286.989 120.361 283.384 120.361C280.527 120.361 278.233 119.67 276.502 118.286C274.77 116.904 273.904 115.082 273.904 112.82V102.232C273.904 101.88 273.855 101.662 273.757 101.578C273.658 101.494 273.404 101.452 272.993 101.452H270.235C269.717 101.452 269.387 101.38 269.244 101.234C269.102 101.089 269.03 100.75 269.03 100.214V99.2059C269.048 98.7477 269.254 98.4117 269.646 98.1976L281.911 91.5969C282.214 91.4595 282.589 91.3906 283.035 91.3906H285.205C285.651 91.3906 285.95 91.4788 286.102 91.6541C286.253 91.83 286.329 92.1776 286.329 92.6969V95.7911C286.329 96.2494 286.414 96.5475 286.584 96.685C286.753 96.8225 287.115 96.8913 287.668 96.8913H292.622C293.282 96.8913 293.711 96.9945 293.908 97.2008C294.104 97.4071 294.202 97.8464 294.202 98.5186V99.8709C294.202 100.604 294.077 101.112 293.827 101.395C293.577 101.678 293.122 101.819 292.462 101.819H287.615C287.115 101.819 286.776 101.896 286.597 102.048C286.418 102.202 286.329 102.492 286.329 102.92Z" fill="#333333"/>
<path d="M320.204 109.474H307.618C307.065 109.474 306.788 109.68 306.788 110.093C306.788 111.086 307.418 112.022 308.676 112.901C309.935 113.779 311.287 114.218 312.733 114.218C313.59 114.218 314.541 114.077 315.585 113.794C316.629 113.512 317.49 113.164 318.169 112.752C318.776 112.385 319.258 112.202 319.615 112.202C320.079 112.202 320.534 112.446 320.981 112.935C321.427 113.424 321.65 113.928 321.65 114.448C321.65 115.548 320.847 116.61 319.24 117.633C316.402 119.452 313.125 120.361 309.412 120.361C305.663 120.361 302.521 119.429 299.986 117.565C298.755 116.648 297.737 115.54 296.933 114.241C295.88 112.515 295.354 110.697 295.354 108.786C295.354 106.22 296.264 103.912 298.085 101.865C299.656 100.092 301.655 98.7704 304.083 97.8996C305.904 97.2428 307.877 96.9141 310.001 96.9141C313.393 96.9141 316.276 97.7393 318.651 99.3894C319.847 100.215 320.811 101.192 321.543 102.323C322.382 103.606 322.802 104.86 322.802 106.082C322.802 107.075 322.561 107.889 322.078 108.523C321.597 109.157 320.972 109.474 320.204 109.474ZM308.314 105.188H311.019C312.161 105.188 312.733 104.738 312.733 103.836C312.733 103.011 312.456 102.339 311.903 101.819C311.349 101.3 310.626 101.04 309.734 101.04C308.733 101.04 307.948 101.376 307.377 102.048C306.842 102.675 306.574 103.309 306.574 103.951C306.574 104.409 306.703 104.73 306.962 104.913C307.221 105.096 307.672 105.188 308.314 105.188Z" fill="#333333"/>
<path d="M337.048 97.0449C337.995 97.0449 338.57 97.1598 338.776 97.3889C338.981 97.618 339.164 98.3516 339.325 99.5891C339.414 100.262 339.69 100.597 340.155 100.597C340.512 100.597 340.851 100.376 341.173 99.9328C342.601 98.023 344.466 97.0681 346.769 97.0681C348.393 97.0681 349.724 97.5188 350.759 98.4202C351.259 98.8637 351.67 99.4327 351.991 100.128C352.313 100.823 352.473 101.492 352.473 102.133C352.473 102.852 352.277 103.589 351.884 104.345C351.491 105.101 350.982 105.724 350.358 106.213C349.215 107.145 347.814 107.611 346.153 107.611C345.243 107.611 344.48 107.474 343.863 107.199C343.248 106.924 342.44 106.366 341.44 105.525C341.065 105.204 340.717 105.044 340.396 105.044C339.896 105.044 339.57 105.285 339.418 105.766C339.267 106.247 339.191 107.26 339.191 108.803C339.191 111.11 339.289 112.684 339.485 113.524C339.61 113.983 339.784 114.3 340.008 114.475C340.231 114.651 340.708 114.831 341.44 115.014C343.047 115.427 343.851 116.145 343.851 117.168C343.851 117.795 343.592 118.341 343.074 118.807C342.556 119.274 341.869 119.583 341.012 119.735C339.298 120.041 336.781 120.194 333.46 120.194C330.3 120.194 327.899 119.957 326.257 119.483C324.793 119.056 324.061 118.315 324.061 117.26C324.061 116.466 324.596 115.755 325.668 115.129C326.185 114.839 326.542 114.575 326.739 114.338C326.935 114.101 327.069 113.777 327.14 113.364C327.426 111.974 327.569 109.399 327.569 105.64C327.569 104.952 327.479 104.46 327.301 104.162C327.122 103.864 326.766 103.623 326.23 103.44C324.962 103.012 324.329 102.393 324.329 101.584C324.329 100.85 324.766 100.22 325.641 99.6926C326.515 99.1656 327.979 98.6424 330.032 98.1225C332.781 97.4195 335.12 97.0603 337.048 97.0449Z" fill="#333333"/>
</svg>
