<svg width="51" height="36" viewBox="0 0 51 36" fill="none" xmlns="http://www.w3.org/2000/svg">
<path d="M17.85 12.8571C17.1737 12.8571 16.5251 13.1281 16.0469 13.6103C15.5687 14.0925 15.3 14.7466 15.3 15.4286V20.5714C15.3 21.2534 15.5687 21.9075 16.0469 22.3897C16.5251 22.8719 17.1737 23.1429 17.85 23.1429C18.5263 23.1429 19.1749 22.8719 19.6531 22.3897C20.1313 21.9075 20.4 21.2534 20.4 20.5714V15.4286C20.4 14.7466 20.1313 14.0925 19.6531 13.6103C19.1749 13.1281 18.5263 12.8571 17.85 12.8571ZM48.45 15.4286C49.1263 15.4286 49.7749 15.1577 50.2531 14.6754C50.7313 14.1932 51 13.5391 51 12.8571V2.57143C51 1.88944 50.7313 1.23539 50.2531 0.753154C49.7749 0.270918 49.1263 0 48.45 0H2.55C1.8737 0 1.2251 0.270918 0.746878 0.753154C0.26866 1.23539 0 1.88944 0 2.57143V12.8571C0 13.5391 0.26866 14.1932 0.746878 14.6754C1.2251 15.1577 1.8737 15.4286 2.55 15.4286C3.2263 15.4286 3.8749 15.6995 4.35312 16.1817C4.83134 16.664 5.1 17.318 5.1 18C5.1 18.682 4.83134 19.336 4.35312 19.8183C3.8749 20.3005 3.2263 20.5714 2.55 20.5714C1.8737 20.5714 1.2251 20.8423 0.746878 21.3246C0.26866 21.8068 0 22.4609 0 23.1429V33.4286C0 34.1106 0.26866 34.7646 0.746878 35.2468C1.2251 35.7291 1.8737 36 2.55 36H48.45C49.1263 36 49.7749 35.7291 50.2531 35.2468C50.7313 34.7646 51 34.1106 51 33.4286V23.1429C51 22.4609 50.7313 21.8068 50.2531 21.3246C49.7749 20.8423 49.1263 20.5714 48.45 20.5714C47.7737 20.5714 47.1251 20.3005 46.6469 19.8183C46.1687 19.336 45.9 18.682 45.9 18C45.9 17.318 46.1687 16.664 46.6469 16.1817C47.1251 15.6995 47.7737 15.4286 48.45 15.4286ZM45.9 10.7486C44.4232 11.2891 43.1472 12.275 42.2454 13.5724C41.3437 14.8698 40.86 16.4157 40.86 18C40.86 19.5843 41.3437 21.1302 42.2454 22.4276C43.1472 23.725 44.4232 24.7109 45.9 25.2514V30.8571H20.4C20.4 30.1752 20.1313 29.5211 19.6531 29.0389C19.1749 28.5566 18.5263 28.2857 17.85 28.2857C17.1737 28.2857 16.5251 28.5566 16.0469 29.0389C15.5687 29.5211 15.3 30.1752 15.3 30.8571H5.1V25.2514C6.57684 24.7109 7.85283 23.725 8.75455 22.4276C9.65628 21.1302 10.14 19.5843 10.14 18C10.14 16.4157 9.65628 14.8698 8.75455 13.5724C7.85283 12.275 6.57684 11.2891 5.1 10.7486V5.14286H15.3C15.3 5.82484 15.5687 6.47889 16.0469 6.96113C16.5251 7.44337 17.1737 7.71429 17.85 7.71429C18.5263 7.71429 19.1749 7.44337 19.6531 6.96113C20.1313 6.47889 20.4 5.82484 20.4 5.14286H45.9V10.7486Z" fill="#276678"/>
</svg>
