<svg width="57" height="57" viewBox="0 0 57 57" fill="none" xmlns="http://www.w3.org/2000/svg">
<path d="M10.4079 0C4.64236 0 0 4.64236 0 10.4078V46.5921C0 52.3576 4.64236 56.9999 10.4079 56.9999H30.0194V34.7165H24.1271V26.6938H30.0194V19.8396C30.0194 14.4545 33.501 9.51009 41.521 9.51009C44.7681 9.51009 47.1693 9.82182 47.1693 9.82182L46.9805 17.3138C46.9805 17.3138 44.5316 17.2906 41.8594 17.2906C38.9673 17.2906 38.5035 18.6232 38.5035 20.8353V26.6938H47.2103L46.8309 34.7166H38.5035V57H46.5921C52.3576 57 57 52.3576 57 46.5922V10.4079C57 4.64241 52.3576 5.69999e-05 46.5921 5.69999e-05H10.4078L10.4079 0Z" fill="#276678"/>
</svg>
