<svg width="72" height="62" viewBox="0 0 72 62" fill="none" xmlns="http://www.w3.org/2000/svg">
<path d="M65.4358 6.56808C61.6187 2.85321 56.5589 0.585867 51.1702 0.175614C45.7816 -0.23464 40.4194 1.23924 36.0523 4.33103C31.4707 1.02313 25.7681 -0.47683 20.0928 0.133206C14.4175 0.743241 9.1911 3.41796 5.46607 7.61873C1.74105 11.8195 -0.205913 17.2343 0.0172678 22.7727C0.240448 28.3111 2.61719 33.5618 6.66887 37.4673L29.0306 59.2085C30.9031 60.9974 33.4251 62 36.0523 62C38.6796 62 41.2016 60.9974 43.0741 59.2085L65.4358 37.4673C69.6402 33.3611 72 27.807 72 22.0177C72 16.2284 69.6402 10.6742 65.4358 6.56808V6.56808ZM60.3585 32.6436L37.9968 54.35C37.7424 54.5994 37.4395 54.7974 37.1058 54.9325C36.772 55.0676 36.414 55.1372 36.0523 55.1372C35.6907 55.1372 35.3327 55.0676 34.9989 54.9325C34.6652 54.7974 34.3623 54.5994 34.1079 54.35L11.7462 32.5388C8.92218 29.7367 7.34084 25.9726 7.34084 22.0526C7.34084 18.1327 8.92218 14.3686 11.7462 11.5665C14.6239 8.80857 18.505 7.26215 22.5489 7.26215C26.5928 7.26215 30.474 8.80857 33.3517 11.5665C33.6864 11.8941 34.0847 12.1541 34.5235 12.3316C34.9623 12.509 35.4329 12.6004 35.9083 12.6004C36.3837 12.6004 36.8543 12.509 37.2931 12.3316C37.7319 12.1541 38.1302 11.8941 38.465 11.5665C41.3427 8.80857 45.2238 7.26215 49.2677 7.26215C53.3116 7.26215 57.1928 8.80857 60.0704 11.5665C62.9332 14.3318 64.5665 18.0755 64.6204 21.9956C64.6742 25.9157 63.1443 29.7003 60.3585 32.5388V32.6436Z" fill="#276678"/>
</svg>
