<svg width="39" height="35" viewBox="0 0 39 35" fill="none" xmlns="http://www.w3.org/2000/svg">
<path d="M35.4444 3.70778C33.3768 1.61068 30.6361 0.330732 27.7172 0.0991369C24.7983 -0.132458 21.8938 0.699574 19.5284 2.44494C17.0467 0.577574 13.9577 -0.269178 10.8836 0.0751967C7.80948 0.419572 4.97851 1.92949 2.96079 4.3009C0.943067 6.6723 -0.111536 9.72904 0.00935342 12.8556C0.130243 15.9821 1.41764 18.9462 3.61231 21.1509L15.7249 33.4242C16.7392 34.434 18.1052 35 19.5284 35C20.9515 35 22.3175 34.434 23.3318 33.4242L35.4444 21.1509C37.7218 18.8329 39 15.6975 39 12.4293C39 9.16117 37.7218 6.02577 35.4444 3.70778V3.70778ZM32.6942 18.4279L20.5816 30.6814C20.4438 30.8222 20.2797 30.934 20.099 31.0103C19.9182 31.0865 19.7242 31.1258 19.5284 31.1258C19.3325 31.1258 19.1385 31.0865 18.9578 31.0103C18.777 30.934 18.6129 30.8222 18.4751 30.6814L6.36251 18.3687C4.83285 16.7868 3.97629 14.6619 3.97629 12.4491C3.97629 10.2362 4.83285 8.11129 6.36251 6.52946C7.92126 4.97258 10.0235 4.0996 12.214 4.0996C14.4045 4.0996 16.5067 4.97258 18.0655 6.52946C18.2468 6.71441 18.4625 6.8612 18.7002 6.96138C18.9379 7.06155 19.1928 7.11313 19.4503 7.11313C19.7078 7.11313 19.9628 7.06155 20.2005 6.96138C20.4381 6.8612 20.6539 6.71441 20.8352 6.52946C22.3939 4.97258 24.4962 4.0996 26.6867 4.0996C28.8771 4.0996 30.9794 4.97258 32.5382 6.52946C34.0888 8.09056 34.9735 10.2039 35.0027 12.4169C35.0319 14.6298 34.2032 16.7663 32.6942 18.3687V18.4279Z" fill="#D3E0EA"/>
</svg>
