<svg width="46" height="57" viewBox="0 0 46 57" fill="none" xmlns="http://www.w3.org/2000/svg">
<path d="M13.9745 19.0569L13.9694 19.0595L13.9617 19.0647L13.9745 19.0569ZM39.4126 18.5751C39.2349 18.4021 39.0376 18.2508 38.8249 18.1241C38.5237 17.9454 38.1894 17.8308 37.8426 17.7874C37.4957 17.7441 37.1438 17.7729 36.8084 17.8722C36.4731 17.9715 36.1615 18.139 35.893 18.3645C35.6244 18.59 35.4046 18.8686 35.2471 19.1832C34.3669 20.9327 33.1528 22.4896 31.6744 23.7648C31.9011 22.4804 32.0156 21.1784 32.0168 19.8738C32.0217 15.9059 30.9837 12.0075 29.0085 8.57556C27.0333 5.14365 24.1915 2.30078 20.7723 0.336394C20.3956 0.120532 19.9705 0.00482346 19.5372 0.000147575C19.1039 -0.00452831 18.6765 0.101982 18.2952 0.309665C17.9139 0.517348 17.5913 0.819382 17.3576 1.18737C17.1239 1.55537 16.9869 1.97723 16.9594 2.41331C16.8163 4.85638 16.1829 7.24474 15.0974 9.4337C14.012 11.6227 12.4971 13.5667 10.6446 15.1479L10.0568 15.6298C8.11872 16.9446 6.40327 18.5655 4.97636 20.4304C2.75883 23.2471 1.22272 26.5461 0.489847 30.0657C-0.243021 33.5853 -0.15248 37.2287 0.754288 40.7068C1.66106 44.185 3.35911 47.4023 5.71377 50.1035C8.06842 52.8048 11.0149 54.9156 14.3195 56.2687C14.7075 56.4279 15.1284 56.4886 15.545 56.4452C15.9617 56.4019 16.3615 56.256 16.7091 56.0203C17.0567 55.7846 17.3415 55.4664 17.5384 55.0936C17.7354 54.7208 17.8384 54.3049 17.8385 53.8826C17.8364 53.6096 17.7933 53.3385 17.7108 53.0786C17.139 50.9116 16.9743 48.6559 17.2252 46.4278C19.644 51.0264 23.5261 54.6712 28.2474 56.7763C28.8234 57.036 29.4745 57.0709 30.0746 56.8742C33.8044 55.6602 37.1644 53.5047 39.8354 50.6126C42.5063 47.7205 44.3996 44.1878 45.3353 40.3502C46.271 36.5126 46.218 32.4975 45.1814 28.6863C44.1448 24.8751 42.159 21.3945 39.4126 18.5751V18.5751ZM29.4332 51.6382C27.2054 50.5 25.2402 48.9018 23.6653 46.9475C22.0904 44.9932 20.941 42.7266 20.2919 40.295C20.0934 39.4762 19.9399 38.6469 19.8319 37.811C19.7592 37.2787 19.5232 36.7826 19.1571 36.3922C18.791 36.0018 18.313 35.7365 17.79 35.6336C17.6292 35.6021 17.4657 35.5865 17.3019 35.5872C16.8529 35.5867 16.4116 35.7056 16.0227 35.9318C15.6337 36.158 15.3107 36.4835 15.0862 36.8756C12.9662 40.5637 11.9004 44.7716 12.0067 49.033C10.1416 47.5712 8.58272 45.7506 7.42055 43.6768C6.25838 41.603 5.516 39.3172 5.23645 36.952C4.9569 34.5867 5.14574 32.1891 5.79202 29.898C6.4383 27.6068 7.52916 25.4679 9.00138 23.605C10.1192 22.141 11.4677 20.8718 12.9932 19.848C13.0599 19.8048 13.1239 19.7575 13.1848 19.7063C13.1848 19.7063 13.9413 19.075 13.9669 19.0621C17.609 15.9571 20.1998 11.7838 21.378 7.12372C24.1621 9.71951 26.0183 13.1696 26.6583 16.9382C27.2983 20.7068 26.6864 24.583 24.9175 27.965C24.6834 28.4164 24.5872 28.9276 24.6411 29.4341C24.6951 29.9406 24.8967 30.4196 25.2204 30.8106C25.5442 31.2016 25.9757 31.4871 26.4603 31.6309C26.9449 31.7748 27.461 31.7706 27.9433 31.6189C31.8577 30.3811 35.3021 27.9638 37.8129 24.6924C39.3224 26.94 40.3094 29.5021 40.7003 32.1879C41.0912 34.8736 40.8759 37.6137 40.0704 40.2038C39.2649 42.7939 37.89 45.1674 36.0482 47.1472C34.2064 49.127 31.9452 50.6621 29.4332 51.6382V51.6382Z" fill="#276678"/>
</svg>
