<svg width="60" height="57" viewBox="0 0 60 57" fill="none" xmlns="http://www.w3.org/2000/svg">
<path d="M29.9113 0C46.4036 0 59.8225 10.8877 59.8225 24.273C59.8225 29.6308 57.7474 34.454 53.4103 39.2062C47.1364 46.4298 33.1043 55.2274 29.9113 56.5734C26.808 57.882 27.1669 55.8369 27.309 55.0292L27.3202 54.9619L27.7464 52.4008C27.8474 51.6381 27.9521 50.4528 27.6492 49.6976C27.3127 48.8638 25.9891 48.4301 25.017 48.2207C10.6409 46.3251 0 36.2711 0 24.273C0 10.8877 13.4227 0 29.9113 0ZM18.7768 28.7372H13.075V18.3879C13.075 18.2339 13.014 18.0861 12.9054 17.9768C12.7969 17.8676 12.6495 17.8057 12.4954 17.8047H10.3942C10.3176 17.8047 10.2417 17.8198 10.171 17.8491C10.1002 17.8784 10.0359 17.9214 9.98173 17.9755C9.92757 18.0297 9.8846 18.094 9.85529 18.1647C9.82598 18.2355 9.81089 18.3114 9.81089 18.3879V31.4218C9.81089 31.5751 9.87445 31.7209 9.97541 31.8218V31.8256L9.98288 31.8331L9.99036 31.8405C10.0988 31.9448 10.2437 32.0025 10.3942 32.0013H18.7768C19.0983 32.0013 19.3563 31.7396 19.3563 31.418V29.3243C19.3568 29.2477 19.3422 29.1717 19.3134 29.1008C19.2845 29.0298 19.242 28.9652 19.1881 28.9107C19.1343 28.8562 19.0703 28.8128 18.9997 28.7831C18.9291 28.7533 18.8534 28.7377 18.7768 28.7372V28.7372ZM21.7343 17.8047C21.5796 17.8047 21.4312 17.8661 21.3218 17.9755C21.2125 18.0849 21.151 18.2333 21.151 18.3879V31.4218C21.151 31.7433 21.4127 32.0013 21.7343 32.0013H23.8355C24.1571 32.0013 24.4151 31.7396 24.4151 31.4218V18.3879C24.4151 18.2339 24.3541 18.0861 24.2456 17.9768C24.137 17.8676 23.9896 17.8057 23.8355 17.8047H21.7343ZM36.1777 17.8047C36.023 17.8047 35.8746 17.8661 35.7652 17.9755C35.6559 18.0849 35.5944 18.2333 35.5944 18.3879V26.1275L29.6234 18.0664C29.6083 18.0468 29.592 18.0281 29.5748 18.0103V18.0066C29.5629 17.9935 29.5505 17.981 29.5374 17.9692L29.5262 17.958C29.5133 17.9457 29.4996 17.9345 29.485 17.9243H29.4813L29.4626 17.9094L29.4514 17.9019C29.4455 17.8975 29.4393 17.8938 29.4327 17.8907L29.4028 17.872H29.3953L29.3841 17.8645L29.3467 17.8495L29.3317 17.8421C29.3195 17.8376 29.307 17.8339 29.2943 17.8309H29.2869L29.2756 17.8271L29.242 17.8196H29.2196L29.2083 17.8159H29.1934L29.1859 17.8122H27.0398C26.8857 17.8122 26.7379 17.8731 26.6287 17.9817C26.5194 18.0902 26.4575 18.2376 26.4565 18.3917V31.4255C26.4565 31.7471 26.7182 32.0051 27.0398 32.0051H29.1336C29.4589 32.0051 29.7206 31.7433 29.7206 31.4255V23.686L35.7028 31.762C35.7426 31.8177 35.792 31.8658 35.8486 31.9041L35.8524 31.9078L35.8898 31.9303L35.9047 31.9377C35.9143 31.9434 35.9243 31.9484 35.9346 31.9527L35.9608 31.9639L35.9795 31.9714C35.9919 31.9755 36.0043 31.9793 36.0169 31.9826H36.0281C36.0768 31.9966 36.1271 32.0041 36.1777 32.0051H38.2715C38.5967 32.0051 38.8585 31.7433 38.8585 31.4255V18.3879C38.8585 18.2333 38.797 18.0849 38.6876 17.9755C38.5782 17.8661 38.4299 17.8047 38.2752 17.8047H36.1777V17.8047ZM50.4416 20.4855V18.3917C50.4421 18.3151 50.4275 18.2391 50.3986 18.1682C50.3698 18.0972 50.3272 18.0327 50.2734 17.9782C50.2196 17.9236 50.1556 17.8803 50.085 17.8505C50.0144 17.8207 49.9387 17.8052 49.8621 17.8047H41.4794C41.3286 17.8049 41.1837 17.8639 41.0756 17.9692H41.0719L41.0682 17.9767L41.0607 17.9879C40.9563 18.095 40.8973 18.2384 40.8962 18.3879V31.4218C40.8962 31.5751 40.9597 31.7209 41.0607 31.8218L41.0682 31.8331L41.0756 31.8405C41.1843 31.9445 41.3291 32.0021 41.4794 32.0013H49.8621C50.1836 32.0013 50.4416 31.7396 50.4416 31.418V29.3243C50.4421 29.2477 50.4275 29.1717 50.3986 29.1008C50.3698 29.0298 50.3272 28.9652 50.2734 28.9107C50.2196 28.8562 50.1556 28.8128 50.085 28.7831C50.0144 28.7533 49.9387 28.7377 49.8621 28.7372H44.1565V26.535H49.8583C50.1799 26.535 50.4379 26.2733 50.4379 25.9518V23.858C50.4384 23.7814 50.4238 23.7054 50.3949 23.6345C50.366 23.5635 50.3235 23.4989 50.2697 23.4444C50.2159 23.3899 50.1518 23.3466 50.0813 23.3168C50.0107 23.287 49.9349 23.2715 49.8583 23.271H44.1565V21.0687H49.8583C50.1799 21.0687 50.4379 20.807 50.4379 20.4855H50.4416Z" fill="#276678"/>
</svg>
