<svg width="49" height="56" viewBox="0 0 49 56" fill="none" xmlns="http://www.w3.org/2000/svg">
<path d="M41.8497 6.9376C37.2523 2.49553 31.0168 -4.68048e-08 24.515 0C18.0132 4.68048e-08 11.7777 2.49553 7.18028 6.9376C2.58282 11.3797 4.84421e-08 17.4044 0 23.6865C-4.84421e-08 29.9685 2.58282 35.9932 7.18028 40.4353L22.4059 55.1743C22.6745 55.4359 22.9941 55.6436 23.3461 55.7853C23.6982 55.927 24.0758 56 24.4572 56C24.8386 56 25.2162 55.927 25.5683 55.7853C25.9204 55.6436 26.2399 55.4359 26.5085 55.1743L41.8497 40.2957C46.428 35.8721 49 29.8725 49 23.6167C49 17.3608 46.428 11.3612 41.8497 6.9376V6.9376ZM37.7183 36.3039L24.515 49.1168L11.3117 36.3039C8.70326 33.7813 6.92741 30.5681 6.20865 27.0705C5.48989 23.5729 5.86049 19.948 7.27361 16.6538C8.68672 13.3597 11.0789 10.5443 14.1478 8.56357C17.2166 6.58282 20.8244 5.52562 24.515 5.52562C28.2056 5.52562 31.8134 6.58282 34.8822 8.56357C37.9511 10.5443 40.3433 13.3597 41.7564 16.6538C43.1695 19.948 43.5401 23.5729 42.8214 27.0705C42.1026 30.5681 40.3267 33.7813 37.7183 36.3039V36.3039ZM15.8476 15.1166C13.5153 17.3771 12.2056 20.4388 12.2056 23.6306C12.2056 26.8225 13.5153 29.8842 15.8476 32.1446C17.5804 33.8217 19.7872 34.967 22.1911 35.4369C24.5951 35.9068 27.0891 35.6803 29.3603 34.7858C31.6315 33.8913 33.5787 32.3687 34.9577 30.409C36.3366 28.4493 37.0859 26.1398 37.1116 23.7702C37.1246 22.188 36.8091 20.6193 36.1839 19.157C35.5586 17.6946 34.6362 16.3682 33.4713 15.2562C32.3262 14.1245 30.9609 13.2227 29.4537 12.6028C27.9466 11.9829 26.3275 11.6571 24.6895 11.6441C23.0515 11.6311 21.4271 11.9313 19.9097 12.5272C18.3922 13.1232 17.0117 14.0032 15.8476 15.1166V15.1166ZM29.3976 28.1807C28.3028 29.2547 26.8558 29.9279 25.3041 30.0852C23.7524 30.2425 22.1923 29.8741 20.8906 29.0431C19.5889 28.212 18.6264 26.9699 18.1676 25.5291C17.7089 24.0882 17.7823 22.5381 18.3755 21.1438C18.9687 19.7496 20.0447 18.5976 21.4196 17.885C22.7944 17.1724 24.3828 16.9434 25.9132 17.2371C27.4435 17.5308 28.8207 18.3289 29.8093 19.4951C30.798 20.6613 31.3367 22.1231 31.3333 23.6306C31.2913 25.3537 30.5431 26.9902 29.2532 28.1807H29.3976Z" fill="#1687A7"/>
</svg>
