<svg width="52" height="42" viewBox="0 0 52 42" fill="none" xmlns="http://www.w3.org/2000/svg">
<path d="M44.2 0H7.8C5.73131 0 3.74735 0.829685 2.28457 2.30653C0.821784 3.78338 0 5.78642 0 7.875V34.125C0 36.2136 0.821784 38.2166 2.28457 39.6935C3.74735 41.1703 5.73131 42 7.8 42H44.2C46.2687 42 48.2526 41.1703 49.7154 39.6935C51.1782 38.2166 52 36.2136 52 34.125V7.875C52 5.78642 51.1782 3.78338 49.7154 2.30653C48.2526 0.829685 46.2687 0 44.2 0V0ZM43.134 5.25L27.846 20.685C27.6043 20.931 27.3167 21.1263 26.9999 21.2596C26.6831 21.3929 26.3432 21.4615 26 21.4615C25.6568 21.4615 25.3169 21.3929 25.0001 21.2596C24.6833 21.1263 24.3957 20.931 24.154 20.685L8.866 5.25H43.134ZM46.8 34.125C46.8 34.8212 46.5261 35.4889 46.0385 35.9812C45.5509 36.4734 44.8896 36.75 44.2 36.75H7.8C7.11044 36.75 6.44912 36.4734 5.96152 35.9812C5.47393 35.4889 5.2 34.8212 5.2 34.125V8.95125L20.488 24.3862C21.9505 25.861 23.933 26.6893 26 26.6893C28.067 26.6893 30.0495 25.861 31.512 24.3862L46.8 8.95125V34.125Z" fill="#1687A7"/>
</svg>
