<svg width="68" height="68" viewBox="0 0 68 68" fill="none" xmlns="http://www.w3.org/2000/svg">
<path d="M34 0C27.3931 0.0125421 20.9324 1.94447 15.4049 5.56046C9.87734 9.17645 5.52155 14.3204 2.86807 20.3659C0.214582 26.4113 -0.622083 33.0972 0.459983 39.6093C1.54205 46.1214 4.49614 52.1785 8.96244 57.043C12.1523 60.4977 16.0239 63.2548 20.333 65.1406C24.6422 67.0264 29.2956 68 34 68C38.7044 68 43.3578 67.0264 47.667 65.1406C51.9761 63.2548 55.8477 60.4977 59.0376 57.043C63.5039 52.1785 66.458 46.1214 67.54 39.6093C68.6221 33.0972 67.7854 26.4113 65.1319 20.3659C62.4784 14.3204 58.1227 9.17645 52.5951 5.56046C47.0676 1.94447 40.6069 0.0125421 34 0V0ZM34 61.2633C26.9434 61.2526 20.166 58.5074 15.0941 53.6054C16.634 49.86 19.2535 46.6564 22.6198 44.4019C25.9862 42.1474 29.9474 40.9436 34 40.9436C38.0526 40.9436 42.0138 42.1474 45.3802 44.4019C48.7465 46.6564 51.366 49.86 52.9059 53.6054C47.834 58.5074 41.0566 61.2526 34 61.2633ZM27.1871 27.2281C27.1871 25.8818 27.5866 24.5658 28.3352 23.4464C29.0839 22.3269 30.1479 21.4545 31.3928 20.9393C32.6377 20.4241 34.0076 20.2893 35.3291 20.5519C36.6507 20.8146 37.8647 21.4629 38.8175 22.4148C39.7703 23.3668 40.4192 24.5797 40.682 25.9002C40.9449 27.2206 40.81 28.5893 40.2943 29.8331C39.7787 31.0769 38.9054 32.14 37.7851 32.888C36.6647 33.636 35.3475 34.0352 34 34.0352C32.1931 34.0352 30.4602 33.318 29.1825 32.0414C27.9048 30.7649 27.1871 29.0335 27.1871 27.2281ZM57.5387 47.6493C54.4951 42.4479 49.8108 38.402 44.2194 36.1454C45.9539 34.1804 47.084 31.7571 47.4742 29.1662C47.8644 26.5754 47.498 23.9271 46.4191 21.5392C45.3402 19.1512 43.5946 17.125 41.3917 15.7037C39.1888 14.2824 36.6223 13.5264 34 13.5264C31.3777 13.5264 28.8112 14.2824 26.6083 15.7037C24.4054 17.125 22.6598 19.1512 21.5809 21.5392C20.502 23.9271 20.1356 26.5754 20.5258 29.1662C20.916 31.7571 22.0461 34.1804 23.7806 36.1454C18.1892 38.402 13.5049 42.4479 10.4613 47.6493C8.03569 43.5211 6.7541 38.8221 6.74824 34.0352C6.74824 26.8138 9.6194 19.8882 14.7301 14.782C19.8408 9.67571 26.7724 6.80704 34 6.80704C41.2276 6.80704 48.1592 9.67571 53.2699 14.782C58.3806 19.8882 61.2518 26.8138 61.2518 34.0352C61.2459 38.8221 59.9643 43.5211 57.5387 47.6493V47.6493Z" fill="#276678"/>
</svg>
