<svg width="58" height="58" viewBox="0 0 58 58" fill="none" xmlns="http://www.w3.org/2000/svg">
<path d="M29 0C23.3647 0.0106977 17.8541 1.65852 13.1394 4.74274C8.42479 7.82697 4.70956 12.2145 2.44629 17.3709C0.183026 22.5273 -0.5306 28.23 0.392339 33.7844C1.31528 39.3388 3.83495 44.5052 7.64444 48.6543C10.3652 51.601 13.6674 53.9527 17.3429 55.5611C21.0183 57.1696 24.9874 58 29 58C33.0126 58 36.9817 57.1696 40.6571 55.5611C44.3326 53.9527 47.6348 51.601 50.3556 48.6543C54.1651 44.5052 56.6847 39.3388 57.6077 33.7844C58.5306 28.23 57.817 22.5273 55.5537 17.3709C53.2904 12.2145 49.5752 7.82697 44.8606 4.74274C40.1459 1.65852 34.6353 0.0106977 29 0V0ZM29 52.254C22.9811 52.2449 17.2004 49.9034 12.8744 45.7223C14.1878 42.5276 16.4221 39.7952 19.2934 37.8722C22.1647 35.9492 25.5433 34.9225 29 34.9225C32.4567 34.9225 35.8353 35.9492 38.7066 37.8722C41.5779 39.7952 43.8122 42.5276 45.1256 45.7223C40.7996 49.9034 35.0189 52.2449 29 52.254ZM23.189 23.224C23.189 22.0757 23.5298 20.9532 24.1683 19.9984C24.8068 19.0436 25.7144 18.2994 26.7762 17.86C27.838 17.4205 29.0064 17.3055 30.1337 17.5296C31.2609 17.7536 32.2963 18.3066 33.109 19.1185C33.9217 19.9305 34.4752 20.9651 34.6994 22.0913C34.9236 23.2176 34.8085 24.385 34.3687 25.4459C33.9289 26.5068 33.1841 27.4135 32.2284 28.0515C31.2728 28.6895 30.1493 29.03 29 29.03C27.4588 29.03 25.9808 28.4183 24.891 27.3295C23.8012 26.2406 23.189 24.7639 23.189 23.224ZM49.0771 40.642C46.4811 36.2055 42.4857 32.7546 37.7166 30.8299C39.196 29.1538 40.1599 27.0869 40.4927 24.8771C40.8255 22.6673 40.513 20.4084 39.5928 18.3716C38.6726 16.3348 37.1836 14.6066 35.3047 13.3943C33.4258 12.1821 31.2366 11.5372 29 11.5372C26.7634 11.5372 24.5742 12.1821 22.6953 13.3943C20.8164 14.6066 19.3274 16.3348 18.4072 18.3716C17.487 20.4084 17.1745 22.6673 17.5073 24.8771C17.8401 27.0869 18.804 29.1538 20.2834 30.8299C15.5143 32.7546 11.5189 36.2055 8.92287 40.642C6.85397 37.121 5.76085 33.113 5.75585 29.03C5.75585 22.8706 8.20478 16.9635 12.5639 12.6082C16.923 8.25281 22.8353 5.806 29 5.806C35.1647 5.806 41.077 8.25281 45.4361 12.6082C49.7952 16.9635 52.2442 22.8706 52.2442 29.03C52.2392 33.113 51.146 37.121 49.0771 40.642V40.642Z" fill="#1687A7"/>
</svg>
