<svg width="50" height="50" viewBox="0 0 50 50" fill="none" xmlns="http://www.w3.org/2000/svg">
<path d="M22.7273 18.1818H31.8182C32.421 18.1818 32.999 17.9424 33.4252 17.5161C33.8515 17.0899 34.0909 16.5119 34.0909 15.9091C34.0909 15.3063 33.8515 14.7282 33.4252 14.302C32.999 13.8758 32.421 13.6364 31.8182 13.6364H27.2727V11.3636C27.2727 10.7609 27.0333 10.1828 26.6071 9.75657C26.1808 9.33035 25.6028 9.09091 25 9.09091C24.3972 9.09091 23.8192 9.33035 23.3929 9.75657C22.9667 10.1828 22.7273 10.7609 22.7273 11.3636V13.6364C20.919 13.6364 19.1848 14.3547 17.9061 15.6334C16.6274 16.912 15.9091 18.6462 15.9091 20.4545C15.9091 22.2628 16.6274 23.9971 17.9061 25.2757C19.1848 26.5544 20.919 27.2727 22.7273 27.2727H27.2727C27.8755 27.2727 28.4536 27.5122 28.8798 27.9384C29.306 28.3646 29.5455 28.9427 29.5455 29.5454C29.5455 30.1482 29.306 30.7263 28.8798 31.1525C28.4536 31.5787 27.8755 31.8182 27.2727 31.8182H18.1818C17.5791 31.8182 17.001 32.0576 16.5748 32.4838C16.1485 32.9101 15.9091 33.4881 15.9091 34.0909C15.9091 34.6937 16.1485 35.2717 16.5748 35.698C17.001 36.1242 17.5791 36.3636 18.1818 36.3636H22.7273V38.6364C22.7273 39.2391 22.9667 39.8172 23.3929 40.2434C23.8192 40.6696 24.3972 40.9091 25 40.9091C25.6028 40.9091 26.1808 40.6696 26.6071 40.2434C27.0333 39.8172 27.2727 39.2391 27.2727 38.6364V36.3636C29.081 36.3636 30.8153 35.6453 32.0939 34.3666C33.3726 33.088 34.0909 31.3537 34.0909 29.5454C34.0909 27.7372 33.3726 26.0029 32.0939 24.7243C30.8153 23.4456 29.081 22.7273 27.2727 22.7273H22.7273C22.1245 22.7273 21.5464 22.4878 21.1202 22.0616C20.694 21.6354 20.4546 21.0573 20.4546 20.4545C20.4546 19.8518 20.694 19.2737 21.1202 18.8475C21.5464 18.4213 22.1245 18.1818 22.7273 18.1818V18.1818ZM25 0C20.0555 0 15.222 1.46622 11.1108 4.21326C6.99953 6.96029 3.79521 10.8648 1.90302 15.4329C0.0108322 20.0011 -0.484251 25.0277 0.480379 29.8773C1.44501 34.7268 3.82603 39.1813 7.32234 42.6777C10.8187 46.174 15.2732 48.555 20.1227 49.5196C24.9723 50.4842 29.9989 49.9892 34.5671 48.097C39.1352 46.2048 43.0397 43.0005 45.7867 38.8892C48.5338 34.778 50 29.9445 50 25C50 18.3696 47.3661 12.0107 42.6777 7.32233C37.9893 2.63392 31.6304 0 25 0V0ZM25 45.4545C20.9545 45.4545 16.9998 44.2549 13.6361 42.0073C10.2723 39.7598 7.65063 36.5652 6.10247 32.8276C4.55432 29.09 4.14925 24.9773 4.93849 21.0095C5.72774 17.0417 7.67584 13.3971 10.5365 10.5364C13.3971 7.67583 17.0417 5.72772 21.0095 4.93848C24.9773 4.14924 29.09 4.55431 32.8276 6.10246C36.5652 7.65062 39.7598 10.2723 42.0073 13.6361C44.2549 16.9998 45.4545 20.9545 45.4545 25C45.4545 30.4249 43.2995 35.6276 39.4636 39.4635C35.6276 43.2995 30.4249 45.4545 25 45.4545V45.4545Z" fill="#333333"/>
</svg>
