<svg width="57" height="57" viewBox="0 0 57 57" fill="none" xmlns="http://www.w3.org/2000/svg">
<path d="M56.0473 2.7796C55.9302 2.33621 55.697 1.93173 55.3714 1.60756C55.0459 1.28339 54.6397 1.05117 54.1944 0.934649C48.8637 -0.443649 43.2505 -0.294966 38.001 1.36358C32.7515 3.02213 28.0791 6.1231 24.5218 10.3095L21.6216 13.7355L14.8545 12.1105C13.2088 11.5387 11.411 11.5793 9.79305 12.2248C8.17512 12.8702 6.84646 14.0769 6.05251 15.6218L0.33526 25.7134C0.135084 26.0668 0.0211571 26.462 0.00267523 26.8673C-0.0158066 27.2726 0.0616747 27.6765 0.228864 28.0465C0.396054 28.4164 0.648267 28.7421 0.965142 28.9971C1.28202 29.2521 1.65468 29.4294 2.05303 29.5146L10.039 31.2198C9.36273 33.27 8.87987 35.3785 8.59669 37.518C8.54522 37.9108 8.58499 38.3101 8.71295 38.6851C8.84091 39.0602 9.05363 39.401 9.33473 39.6812L17.3909 47.7028C17.6324 47.9434 17.9193 48.1342 18.235 48.2643C18.5507 48.3944 18.8891 48.4612 19.2308 48.4609C19.3035 48.4609 19.3789 48.4583 19.4543 48.4506C21.6515 48.254 23.822 47.8291 25.9304 47.1827L27.6039 54.9558C27.6895 55.3524 27.8675 55.7235 28.1237 56.039C28.3798 56.3545 28.7068 56.6057 29.0784 56.7721C29.4499 56.9386 29.8556 57.0157 30.2626 56.9973C30.6697 56.9789 31.0666 56.8655 31.4215 56.6662L41.5696 50.9683C42.9982 50.1042 44.1142 48.8104 44.7564 47.2738C45.3987 45.7372 45.534 44.0371 45.1429 42.4189L43.4069 35.2772L46.6216 32.3351C50.8413 28.8023 53.967 24.1493 55.6352 18.9172C57.3033 13.6851 57.4453 8.08892 56.0447 2.7796H56.0473ZM6.59565 25.1907L10.6393 18.049C10.8909 17.5645 11.3191 17.1941 11.836 17.0137C12.353 16.8333 12.9196 16.8566 13.42 17.0786L17.8846 18.1551L16.1954 20.1527C14.5934 22.0636 13.2077 24.1445 12.0634 26.3577L6.59565 25.1907ZM39.0021 46.4659L31.9465 50.4301L30.829 45.242C33.0921 44.1185 35.2005 42.7096 37.1024 41.0501L39.0333 39.2827L40.0831 43.5885C40.2189 44.1207 40.1882 44.6814 39.995 45.1957C39.8017 45.71 39.4553 46.1532 39.0021 46.4659V46.4659ZM43.199 28.4433L33.6227 37.2049C29.8328 40.4683 25.1582 42.5426 20.1871 43.1667L13.9371 36.9462C14.7764 31.9831 16.9303 27.3328 20.1767 23.4752L24.54 18.3181C24.6125 18.243 24.6802 18.1635 24.7427 18.08L28.4719 13.6682C31.2293 10.4256 34.8016 7.96978 38.8239 6.55142C42.8462 5.13305 47.1746 4.80298 51.3669 5.5949C52.1812 9.78224 51.8529 14.1104 50.4164 18.1285C48.9798 22.1466 46.4875 25.7076 43.199 28.4407V28.4433ZM40.8004 12.4934C40.0294 12.4934 39.2758 12.7211 38.6347 13.1475C37.9937 13.574 37.494 14.1802 37.199 14.8895C36.904 15.5987 36.8268 16.3791 36.9772 17.132C37.1276 17.8849 37.4988 18.5765 38.044 19.1194C38.5892 19.6622 39.2837 20.0318 40.0399 20.1816C40.7961 20.3314 41.5799 20.2545 42.2921 19.9607C43.0044 19.667 43.6132 19.1695 44.0416 18.5312C44.4699 17.8929 44.6985 17.1425 44.6985 16.3748C44.6985 15.3454 44.2878 14.3581 43.5568 13.6302C42.8257 12.9023 41.8342 12.4934 40.8004 12.4934Z" fill="#276678"/>
</svg>
