<svg width="156" height="156" viewBox="0 0 156 156" fill="none" xmlns="http://www.w3.org/2000/svg">
<path d="M99.216 52.962L65.754 86.502L52.884 73.632C52.1848 72.8155 51.3243 72.1523 50.3566 71.6841C49.3889 71.2159 48.3348 70.9528 47.2606 70.9114C46.1864 70.8699 45.1152 71.0509 44.1143 71.443C43.1134 71.8352 42.2043 72.43 41.4442 73.1901C40.684 73.9503 40.0892 74.8593 39.6971 75.8603C39.3049 76.8612 39.1239 77.9324 39.1654 79.0066C39.2069 80.0808 39.47 81.1348 39.9382 82.1025C40.4063 83.0703 41.0695 83.9307 41.886 84.63L60.216 103.038C60.9449 103.761 61.8092 104.333 62.7595 104.721C63.7099 105.109 64.7275 105.306 65.754 105.3C67.8003 105.291 69.7612 104.479 71.214 103.038L110.214 64.038C110.945 63.3129 111.525 62.4502 111.921 61.4997C112.317 60.5492 112.521 59.5297 112.521 58.5C112.521 57.4703 112.317 56.4508 111.921 55.5003C111.525 54.5498 110.945 53.6871 110.214 52.962C108.753 51.5092 106.776 50.6938 104.715 50.6938C102.654 50.6938 100.677 51.5092 99.216 52.962V52.962ZM78 0C62.5731 0 47.4926 4.57462 34.6655 13.1454C21.8385 21.7161 11.8411 33.898 5.93743 48.1507C0.0337961 62.4033 -1.51086 78.0865 1.49878 93.217C4.50843 108.348 11.9372 122.246 22.8457 133.154C33.7542 144.063 47.6525 151.492 62.783 154.501C77.9135 157.511 93.5967 155.966 107.849 150.063C122.102 144.159 134.284 134.161 142.855 121.334C151.425 108.507 156 93.4269 156 78C156 67.7569 153.982 57.6141 150.063 48.1507C146.143 38.6873 140.397 30.0886 133.154 22.8457C125.911 15.6027 117.313 9.85726 107.849 5.9374C98.3859 2.01753 88.2431 0 78 0V0ZM78 140.4C65.6585 140.4 53.5941 136.74 43.3324 129.884C33.0708 123.027 25.0729 113.282 20.3499 101.879C15.627 90.4773 14.3913 77.9308 16.799 65.8263C19.2067 53.7219 25.1498 42.6033 33.8766 33.8765C42.6034 25.1497 53.722 19.2067 65.8264 16.799C77.9308 14.3913 90.4774 15.627 101.879 20.3499C113.282 25.0728 123.027 33.0708 129.884 43.3324C136.74 53.594 140.4 65.6584 140.4 78C140.4 94.5495 133.826 110.421 122.123 122.123C110.421 133.826 94.5495 140.4 78 140.4V140.4Z" fill="#1687A7"/>
</svg>
