<svg width="50" height="50" viewBox="0 0 50 50" fill="none" xmlns="http://www.w3.org/2000/svg">
<path d="M37.5176 17.4992H12.5528C11.8907 17.4992 11.2557 17.7626 10.7875 18.2314C10.3193 18.7002 10.0563 19.3361 10.0563 19.9991C10.0563 20.6621 10.3193 21.298 10.7875 21.7668C11.2557 22.2356 11.8907 22.499 12.5528 22.499H37.5176C38.1797 22.499 38.8147 22.2356 39.2829 21.7668C39.7511 21.298 40.0141 20.6621 40.0141 19.9991C40.0141 19.3361 39.7511 18.7002 39.2829 18.2314C38.8147 17.7626 38.1797 17.4992 37.5176 17.4992ZM27.5317 27.4988H12.5528C11.8907 27.4988 11.2557 27.7622 10.7875 28.231C10.3193 28.6998 10.0563 29.3357 10.0563 29.9987C10.0563 30.6617 10.3193 31.2975 10.7875 31.7664C11.2557 32.2352 11.8907 32.4986 12.5528 32.4986H27.5317C28.1938 32.4986 28.8288 32.2352 29.2969 31.7664C29.7651 31.2975 30.0281 30.6617 30.0281 29.9987C30.0281 29.3357 29.7651 28.6998 29.2969 28.231C28.8288 27.7622 28.1938 27.4988 27.5317 27.4988ZM25.0352 0C21.7568 0 18.5104 0.646616 15.4816 1.90293C12.4527 3.15924 9.70059 5.00064 7.38239 7.32201C2.70058 12.0102 0.0703668 18.3688 0.0703668 24.9989C0.0485421 30.7715 2.04457 36.3697 5.71242 40.8232L0.719452 45.823C0.373046 46.1745 0.138386 46.6209 0.0450823 47.1059C-0.0482215 47.5908 0.00401159 48.0926 0.195191 48.5479C0.402543 48.9977 0.738685 49.3756 1.16095 49.6338C1.58321 49.8919 2.07255 50.0186 2.56685 49.9978H25.0352C31.6563 49.9978 38.0062 47.364 42.688 42.6758C47.3698 37.9876 50 31.629 50 24.9989C50 18.3688 47.3698 12.0102 42.688 7.32201C38.0062 2.6338 31.6563 0 25.0352 0V0ZM25.0352 44.998H8.58337L10.9051 42.6731C11.3701 42.2047 11.6311 41.5711 11.6311 40.9107C11.6311 40.2503 11.3701 39.6167 10.9051 39.1483C7.63617 35.8785 5.60051 31.5749 5.14494 26.9708C4.68938 22.3666 5.84209 17.7467 8.40669 13.8982C10.9713 10.0497 14.7891 7.21058 19.2097 5.86467C23.6303 4.51877 28.3801 4.7493 32.65 6.517C36.9199 8.28469 40.4456 11.4802 42.6265 15.559C44.8074 19.6379 45.5085 24.3478 44.6104 28.8862C43.7123 33.4247 41.2706 37.511 37.7012 40.4488C34.1318 43.3867 29.6556 44.9944 25.0352 44.998V44.998Z" fill="#276678"/>
</svg>
