<svg width="44" height="33" viewBox="0 0 44 33" fill="none" xmlns="http://www.w3.org/2000/svg">
<path d="M22.6307 16.9271C23.6993 16.0305 24.5564 14.9216 25.1439 13.6756C25.7313 12.4297 26.0354 11.0758 26.0354 9.70588C26.0354 7.13172 24.9804 4.66299 23.1024 2.84279C21.2245 1.02258 18.6775 3.47298e-07 16.0218 3.47298e-07C13.366 3.47298e-07 10.819 1.02258 8.94107 2.84279C7.06316 4.66299 6.00816 7.13172 6.00816 9.70588C6.00814 11.0758 6.31217 12.4297 6.89962 13.6756C7.48707 14.9216 8.34418 16.0305 9.41278 16.9271C6.60925 18.1575 4.23068 20.1446 2.56144 22.6507C0.892202 25.1568 0.00294771 28.0758 0 31.0588C0 31.5737 0.211 32.0674 0.586583 32.4314C0.962166 32.7955 1.47157 33 2.00272 33C2.53387 33 3.04327 32.7955 3.41886 32.4314C3.79444 32.0674 4.00544 31.5737 4.00544 31.0588C4.00544 27.9698 5.27144 25.0074 7.52494 22.8231C9.77843 20.6389 12.8348 19.4118 16.0218 19.4118C19.2087 19.4118 22.2651 20.6389 24.5186 22.8231C26.7721 25.0074 28.0381 27.9698 28.0381 31.0588C28.0381 31.5737 28.2491 32.0674 28.6247 32.4314C29.0002 32.7955 29.5096 33 30.0408 33C30.5719 33 31.0813 32.7955 31.4569 32.4314C31.8325 32.0674 32.0435 31.5737 32.0435 31.0588C32.0406 28.0758 31.1513 25.1568 29.4821 22.6507C27.8128 20.1446 25.4343 18.1575 22.6307 16.9271V16.9271ZM16.0218 15.5294C14.8335 15.5294 13.6718 15.1879 12.6838 14.548C11.6958 13.9081 10.9257 12.9986 10.4709 11.9345C10.0162 10.8703 9.89722 9.69942 10.129 8.56977C10.3609 7.44011 10.9331 6.40246 11.7733 5.58803C12.6136 4.77359 13.6842 4.21895 14.8496 3.99425C16.0151 3.76955 17.2231 3.88487 18.321 4.32564C19.4188 4.76641 20.3572 5.51283 21.0174 6.4705C21.6775 7.42818 22.0299 8.5541 22.0299 9.70588C22.0299 11.2504 21.3969 12.7316 20.2702 13.8237C19.1434 14.9159 17.6152 15.5294 16.0218 15.5294ZM35.5282 16.1506C36.8099 14.7516 37.6471 13.0235 37.9391 11.1741C38.2311 9.32468 37.9654 7.43291 37.174 5.72647C36.3826 4.02003 35.0992 2.57166 33.4784 1.5557C31.8576 0.539744 29.9683 -0.000500047 28.0381 3.47298e-07C27.5069 3.47298e-07 26.9975 0.204516 26.6219 0.568558C26.2464 0.932599 26.0354 1.42634 26.0354 1.94118C26.0354 2.45601 26.2464 2.94975 26.6219 3.3138C26.9975 3.67784 27.5069 3.88235 28.0381 3.88235C29.6315 3.88235 31.1597 4.4959 32.2865 5.58803C33.4132 6.68015 34.0462 8.16139 34.0462 9.70588C34.0434 10.7255 33.7644 11.7265 33.2373 12.6088C32.7101 13.4911 31.9531 14.2237 31.0422 14.7335C30.7452 14.8995 30.4972 15.1366 30.3219 15.4221C30.1466 15.7076 30.0498 16.032 30.0408 16.3641C30.0324 16.6937 30.1108 17.0198 30.2684 17.3119C30.4261 17.604 30.6579 17.8523 30.942 18.0335L31.7231 18.5382L31.9834 18.6741C34.3975 19.7839 36.4341 21.5393 37.8534 23.7334C39.2726 25.9276 40.0154 28.4692 39.9943 31.0588C39.9943 31.5737 40.2053 32.0674 40.5809 32.4314C40.9565 32.7955 41.4659 33 41.997 33C42.5282 33 43.0376 32.7955 43.4132 32.4314C43.7887 32.0674 43.9997 31.5737 43.9997 31.0588C44.0161 28.0799 43.2464 25.1465 41.7636 22.5372C40.2809 19.9279 38.1345 17.7294 35.5282 16.1506V16.1506Z" fill="#333333"/>
</svg>
