<svg width="58" height="61" viewBox="0 0 58 61" fill="none" xmlns="http://www.w3.org/2000/svg">
<path d="M41.1505 9.21421C41.8905 9.63277 42.7667 9.74278 43.5878 9.52024C44.409 9.2977 45.1084 8.76066 45.5336 8.02631C45.8854 7.40783 46.4334 6.92315 47.0915 6.64829C47.7496 6.37343 48.4807 6.32393 49.1701 6.50756C49.8595 6.69118 50.4682 7.09755 50.9008 7.66292C51.3334 8.2283 51.5654 8.92071 51.5604 9.63158C51.5604 10.4831 51.2209 11.2997 50.6165 11.9018C50.012 12.5039 49.1923 12.8421 48.3375 12.8421C47.4828 12.8421 46.663 13.1804 46.0586 13.7824C45.4542 14.3845 45.1146 15.2011 45.1146 16.0526C45.1146 16.9041 45.4542 17.7207 46.0586 18.3228C46.663 18.9249 47.4828 19.2632 48.3375 19.2632C50.0345 19.2621 51.7012 18.8161 53.1704 17.9701C54.6395 17.124 55.8592 15.9077 56.707 14.4434C57.5547 12.979 58.0007 11.3182 58 9.62772C57.9993 7.93729 57.552 6.2768 56.7031 4.81312C55.8541 3.34943 54.6335 2.13409 53.1637 1.28923C51.6939 0.444364 50.0267 -0.000270629 48.3298 1.23578e-07C46.6328 0.000270876 44.9658 0.445438 43.4963 1.29077C42.0268 2.13611 40.8065 3.35183 39.958 4.81579C39.7449 5.18222 39.6067 5.58702 39.5513 6.00689C39.4959 6.42676 39.5245 6.85339 39.6353 7.26222C39.7462 7.67105 39.9371 8.05399 40.1971 8.389C40.4572 8.72401 40.7812 9.00446 41.1505 9.21421ZM55.0089 32.1053C54.1629 31.9959 53.3079 32.2251 52.6313 32.7427C51.9546 33.2602 51.5116 34.0239 51.3993 34.8663C50.7229 40.3087 48.0724 45.3169 43.9467 48.9477C39.8211 52.5785 34.5052 54.5813 29.0002 54.5789H10.9842L13.0791 52.4921C13.6794 51.8906 14.0163 51.0769 14.0163 50.2287C14.0163 49.3805 13.6794 48.5668 13.0791 47.9653C9.93661 44.8225 7.79802 40.8237 6.9327 36.4724C6.06737 32.1212 6.51403 27.6122 8.21639 23.5133C9.91876 19.4145 12.8007 15.9092 16.4992 13.4389C20.1977 10.9686 24.5473 9.6439 29.0002 9.63158C29.8549 9.63158 30.6747 9.29332 31.2791 8.69123C31.8835 8.08914 32.2231 7.27253 32.2231 6.42105C32.2231 5.56957 31.8835 4.75296 31.2791 4.15087C30.6747 3.54878 29.8549 3.21052 29.0002 3.21052C23.551 3.23317 18.2185 4.78444 13.6134 7.68662C9.00841 10.5888 5.31719 14.7245 2.96264 19.6199C0.608102 24.5153 -0.314521 29.9724 0.300477 35.3661C0.915474 40.7597 3.04322 45.8717 6.43994 50.1163L0.928793 55.51C0.481593 55.9615 0.178653 56.5348 0.0582001 57.1576C-0.0622526 57.7804 0.00517885 58.4248 0.251986 59.0095C0.493768 59.5958 0.904357 60.0977 1.43201 60.4519C1.95966 60.8061 2.58077 60.9968 3.21705 61H29.0002C36.063 61.001 42.8835 58.4348 48.1822 53.783C53.481 49.1311 56.8938 42.7132 57.7806 35.7332C57.8395 35.3134 57.8145 34.8862 57.7068 34.4761C57.5992 34.0661 57.4111 33.6813 57.1534 33.344C56.8957 33.0068 56.5736 32.7237 56.2055 32.511C55.8374 32.2984 55.4308 32.1605 55.0089 32.1053V32.1053ZM49.5622 22.6984C48.9755 22.4398 48.3246 22.3616 47.6929 22.4737L47.1128 22.6663L46.5327 22.9553L46.0493 23.3726C45.7594 23.6685 45.5296 24.0173 45.3725 24.4C45.1819 24.8005 45.0933 25.2415 45.1146 25.6842C45.1052 26.1124 45.182 26.5381 45.3402 26.9363C45.5069 27.3216 45.7478 27.6707 46.0493 27.9637C46.3504 28.2612 46.7076 28.4966 47.1002 28.6564C47.4929 28.8162 47.9134 28.8972 48.3375 28.8947C49.1923 28.8947 50.012 28.5565 50.6165 27.9544C51.2209 27.3523 51.5604 26.5357 51.5604 25.6842C51.5713 25.2631 51.483 24.8452 51.3026 24.4642C50.9563 23.6927 50.3367 23.0755 49.5622 22.7305V22.6984Z" fill="#1687A7"/>
</svg>
