<svg width="64" height="64" viewBox="0 0 64 64" fill="none" xmlns="http://www.w3.org/2000/svg">
<path d="M60.4713 34.5734L63.9447 15.47C64.0345 14.9759 64.0147 14.4681 63.8866 13.9826C63.7586 13.497 63.5254 13.0455 63.2036 12.66C62.8818 12.2744 62.4793 11.9643 62.0244 11.7515C61.5695 11.5386 61.0735 11.4283 60.5713 11.4284H15.4328L14.2085 4.6922C13.9697 3.37518 13.2759 2.18388 12.2482 1.32629C11.2205 0.468688 9.92422 -0.000723672 8.5857 8.37423e-07H3.42856C2.51925 8.37423e-07 1.64718 0.361218 1.0042 1.00419C0.361223 1.64716 0 2.51921 0 3.42851C0 4.33781 0.361223 5.20986 1.0042 5.85283C1.64718 6.4958 2.51925 6.85702 3.42856 6.85702H7.63227L15.1951 48.454C14.0773 49.5939 13.2777 51.0068 12.8759 52.5519C12.4741 54.097 12.4842 55.7204 12.9051 57.2604C13.326 58.8005 14.143 60.2033 15.2748 61.3293C16.4066 62.4553 17.8137 63.2651 19.3559 63.6781C20.8981 64.091 22.5216 64.0927 24.0646 63.683C25.6077 63.2733 27.0164 62.4664 28.1506 61.3428C29.2848 60.2192 30.1048 58.8181 30.5289 57.279C30.953 55.7398 30.9665 54.1164 30.5679 52.5705H42.5753C42.0985 54.4168 42.2109 56.366 42.8968 58.1452C43.5826 59.9245 44.8076 61.4448 46.4003 62.4934C47.993 63.542 49.8737 64.0664 51.7792 63.9933C53.6847 63.9201 55.5196 63.253 57.0272 62.0853C58.5348 60.9176 59.6396 59.3078 60.1869 57.4812C60.7343 55.6546 60.6968 53.7025 60.0798 51.8982C59.4628 50.0939 58.2971 48.5277 56.7458 47.4187C55.1946 46.3097 53.3354 45.7135 51.4285 45.7135H21.6665L20.8351 41.1421H52.6005C54.4741 41.1428 56.2885 40.4855 57.727 39.285C59.1654 38.0845 60.1366 36.4169 60.471 34.5734H60.4713ZM24 54.8562C24 55.3082 23.8659 55.7501 23.6147 56.126C23.3636 56.5019 23.0066 56.7949 22.5889 56.9678C22.1713 57.1408 21.7117 57.1861 21.2683 57.0979C20.8249 57.0097 20.4177 56.792 20.098 56.4724C19.7783 56.1527 19.5606 55.7455 19.4725 55.3021C19.3843 54.8587 19.4295 54.3991 19.6025 53.9815C19.7755 53.5638 20.0685 53.2068 20.4444 52.9557C20.8203 52.7045 21.2622 52.5705 21.7142 52.5705C22.3202 52.5712 22.9012 52.8123 23.3296 53.2408C23.7581 53.6693 23.9992 54.2502 24 54.8562ZM51.4285 57.1418C50.9764 57.1418 50.5345 57.0078 50.1586 56.7566C49.7827 56.5055 49.4897 56.1485 49.3167 55.7308C49.1437 55.3132 49.0985 54.8536 49.1867 54.4102C49.2749 53.9669 49.4926 53.5596 49.8122 53.2399C50.1319 52.9203 50.5392 52.7026 50.9825 52.6144C51.4259 52.5262 51.8855 52.5715 52.3032 52.7445C52.7208 52.9175 53.0778 53.2104 53.329 53.5863C53.5801 53.9622 53.7142 54.4041 53.7142 54.8562C53.7134 55.4621 53.4724 56.0431 53.0439 56.4715C52.6154 56.9 52.0344 57.1411 51.4285 57.1418V57.1418ZM16.6797 18.2854H56.4627L53.7242 33.3468C53.6764 33.6101 53.5378 33.8483 53.3323 34.0198C53.1269 34.1913 52.8678 34.2852 52.6002 34.2851H19.5885L16.6797 18.2854Z" fill="#1687A7"/>
</svg>
