<svg width="56" height="56" viewBox="0 0 56 56" fill="none" xmlns="http://www.w3.org/2000/svg">
<path d="M52.9124 30.2517L55.9516 13.5363C56.0302 13.1039 56.0129 12.6596 55.9008 12.2348C55.7888 11.8099 55.5847 11.4148 55.3032 11.0775C55.0216 10.7401 54.6694 10.4687 54.2714 10.2825C53.8734 10.0963 53.4393 9.99981 52.9999 9.99982H13.5037L12.4325 4.10568C12.2235 2.95328 11.6164 1.9109 10.7172 1.1605C9.81792 0.410102 8.68369 -0.000633213 7.51248 7.32745e-07H2.99999C2.20435 7.32745e-07 1.44129 0.316066 0.878678 0.878665C0.31607 1.44126 0 2.20431 0 2.99995C0 3.79558 0.31607 4.55863 0.878678 5.12123C1.44129 5.68383 2.20435 5.99989 2.99999 5.99989H6.67824L13.2957 42.3972C12.3177 43.3947 11.618 44.6309 11.2664 45.9829C10.9149 47.3349 10.9237 48.7554 11.292 50.1029C11.6602 51.4504 12.3751 52.6779 13.3655 53.6631C14.3558 54.6484 15.587 55.357 16.9364 55.7183C18.2858 56.0796 19.7064 56.0811 21.0565 55.7226C22.4067 55.3641 23.6394 54.6581 24.6318 53.675C25.6242 52.6918 26.3417 51.4658 26.7128 50.1191C27.0839 48.7724 27.0957 47.3519 26.7469 45.9992H37.2534C36.8362 47.6147 36.9345 49.3202 37.5347 50.8771C38.1348 52.4339 39.2066 53.7642 40.6003 54.6818C41.9939 55.5993 43.6395 56.0581 45.3068 55.9941C46.9741 55.9301 48.5797 55.3464 49.8988 54.3246C51.218 53.3029 52.1846 51.8944 52.6636 50.2961C53.1425 48.6977 53.1097 46.9897 52.5698 45.4109C52.03 43.8322 51.01 42.4617 49.6526 41.4914C48.2952 40.521 46.6685 39.9993 44.9999 39.9993H18.9582L18.2307 35.9994H46.0254C47.6648 36 49.2524 35.4248 50.5111 34.3744C51.7697 33.3239 52.6195 31.8648 52.9121 30.2517H52.9124ZM21 47.9991C21 48.3947 20.8827 48.7814 20.6629 49.1103C20.4431 49.4392 20.1308 49.6955 19.7653 49.8469C19.3999 49.9982 18.9977 50.0378 18.6098 49.9607C18.2218 49.8835 17.8655 49.693 17.5858 49.4133C17.306 49.1336 17.1156 48.7773 17.0384 48.3893C16.9612 48.0014 17.0008 47.5992 17.1522 47.2338C17.3036 46.8683 17.5599 46.556 17.8888 46.3362C18.2177 46.1165 18.6044 45.9992 19 45.9992C19.5302 45.9998 20.0385 46.2108 20.4134 46.5857C20.7884 46.9606 20.9993 47.4689 21 47.9991ZM44.9999 49.9991C44.6043 49.9991 44.2177 49.8818 43.8888 49.662C43.5599 49.4423 43.3035 49.1299 43.1522 48.7645C43.0008 48.399 42.9612 47.9969 43.0383 47.609C43.1155 47.221 43.306 46.8646 43.5857 46.5849C43.8654 46.3052 44.2218 46.1148 44.6097 46.0376C44.9977 45.9604 45.3998 46 45.7653 46.1514C46.1307 46.3028 46.4431 46.5591 46.6628 46.888C46.8826 47.2169 46.9999 47.6036 46.9999 47.9991C46.9992 48.5294 46.7883 49.0377 46.4134 49.4126C46.0385 49.7875 45.5301 49.9984 44.9999 49.9991V49.9991ZM14.5947 15.9997H49.4049L47.0087 29.1785C46.9669 29.4089 46.8455 29.6173 46.6658 29.7673C46.486 29.9174 46.2593 29.9995 46.0252 29.9995H17.14L14.5947 15.9997Z" fill="#276678"/>
</svg>
