<svg width="58" height="58" viewBox="0 0 58 58" fill="none" xmlns="http://www.w3.org/2000/svg">
<path d="M39.759 26.941C40.023 27.2168 40.23 27.542 40.368 27.898C40.6581 28.604 40.6581 29.396 40.368 30.102C40.23 30.458 40.023 30.7832 39.759 31.059L31.059 39.759C30.5129 40.3051 29.7723 40.6119 29 40.6119C28.2277 40.6119 27.4871 40.3051 26.941 39.759C26.3949 39.2129 26.0881 38.4723 26.0881 37.7C26.0881 36.9277 26.3949 36.1871 26.941 35.641L30.711 31.9H20.3C19.5309 31.9 18.7933 31.5945 18.2494 31.0506C17.7055 30.5067 17.4 29.7691 17.4 29C17.4 28.2309 17.7055 27.4932 18.2494 26.9494C18.7933 26.4055 19.5309 26.1 20.3 26.1H30.711L26.941 22.359C26.6692 22.0894 26.4535 21.7687 26.3062 21.4153C26.159 21.0619 26.0832 20.6828 26.0832 20.3C26.0832 19.9172 26.159 19.5381 26.3062 19.1847C26.4535 18.8313 26.6692 18.5106 26.941 18.241C27.2106 17.9692 27.5313 17.7534 27.8847 17.6062C28.2381 17.459 28.6172 17.3832 29 17.3832C29.3828 17.3832 29.7619 17.459 30.1153 17.6062C30.4687 17.7534 30.7894 17.9692 31.059 18.241L39.759 26.941ZM58 29C58 34.7356 56.2992 40.3425 53.1126 45.1115C49.9261 49.8806 45.3969 53.5976 40.0978 55.7925C34.7988 57.9874 28.9678 58.5617 23.3424 57.4428C17.7169 56.3238 12.5496 53.5618 8.49391 49.5061C4.43819 45.4504 1.67621 40.2831 0.55724 34.6576C-0.561731 29.0322 0.0125652 23.2012 2.20751 17.9022C4.40245 12.6031 8.11945 8.07394 12.8885 4.88738C17.6575 1.70082 23.2644 1.33515e-06 29 1.33515e-06C36.6913 1.33515e-06 44.0675 3.05535 49.5061 8.4939C54.9447 13.9325 58 21.3087 58 29V29ZM5.80001 29C5.80001 33.5885 7.16067 38.074 9.70992 41.8892C12.2592 45.7044 15.8825 48.678 20.1218 50.434C24.361 52.1899 29.0257 52.6494 33.5261 51.7542C38.0265 50.859 42.1603 48.6494 45.4049 45.4049C48.6495 42.1603 50.859 38.0264 51.7542 33.5261C52.6494 29.0257 52.19 24.361 50.434 20.1217C48.6781 15.8825 45.7045 12.2592 41.8892 9.70991C38.074 7.16066 33.5885 5.8 29 5.8C22.847 5.8 16.946 8.24427 12.5951 12.5951C8.24429 16.946 5.80001 22.847 5.80001 29V29Z" fill="#D3E0EA"/>
</svg>
