<svg width="58" height="58" viewBox="0 0 58 58" fill="none" xmlns="http://www.w3.org/2000/svg">
<path d="M18.241 31.059C17.977 30.7832 17.77 30.458 17.632 30.102C17.3419 29.396 17.3419 28.604 17.632 27.898C17.77 27.542 17.977 27.2168 18.241 26.941L26.941 18.241C27.4871 17.6949 28.2277 17.3881 29 17.3881C29.7723 17.3881 30.5129 17.6949 31.059 18.241C31.6051 18.7871 31.9119 19.5277 31.9119 20.3C31.9119 21.0723 31.6051 21.8129 31.059 22.359L27.289 26.1L37.7 26.1C38.4691 26.1 39.2067 26.4055 39.7506 26.9494C40.2945 27.4933 40.6 28.2309 40.6 29C40.6 29.7691 40.2945 30.5068 39.7506 31.0506C39.2067 31.5945 38.4691 31.9 37.7 31.9L27.289 31.9L31.059 35.641C31.3308 35.9106 31.5465 36.2313 31.6938 36.5847C31.841 36.9381 31.9168 37.3172 31.9168 37.7C31.9168 38.0828 31.841 38.4619 31.6938 38.8153C31.5465 39.1687 31.3308 39.4894 31.059 39.759C30.7894 40.0308 30.4687 40.2466 30.1153 40.3938C29.7619 40.541 29.3828 40.6168 29 40.6168C28.6172 40.6168 28.2381 40.541 27.8847 40.3938C27.5313 40.2466 27.2106 40.0308 26.941 39.759L18.241 31.059ZM-1.20011e-06 29C-6.98688e-07 23.2643 1.70082 17.6575 4.88738 12.8885C8.07394 8.11944 12.6031 4.40244 17.9022 2.2075C23.2012 0.0125622 29.0322 -0.561734 34.6576 0.557238C40.2831 1.67621 45.4504 4.43819 49.5061 8.49391C53.5618 12.5496 56.3238 17.7169 57.4428 23.3424C58.5617 28.9678 57.9874 34.7988 55.7925 40.0978C53.5975 45.3969 49.8805 49.9261 45.1115 53.1126C40.3425 56.2992 34.7356 58 29 58C21.3087 58 13.9325 54.9446 8.4939 49.5061C3.05535 44.0675 -1.87251e-06 36.6913 -1.20011e-06 29V29ZM52.2 29C52.2 24.4115 50.8393 19.926 48.2901 16.1108C45.7408 12.2956 42.1175 9.32196 37.8782 7.56601C33.639 5.81005 28.9743 5.35061 24.4739 6.24579C19.9735 7.14097 15.8397 9.35055 12.5951 12.5951C9.35054 15.8397 7.14095 19.9736 6.24578 24.4739C5.3506 28.9743 5.81004 33.639 7.56599 37.8783C9.32194 42.1175 12.2955 45.7408 16.1108 48.2901C19.926 50.8393 24.4115 52.2 29 52.2C35.153 52.2 41.054 49.7557 45.4049 45.4049C49.7557 41.054 52.2 35.153 52.2 29V29Z" fill="#D3E0EA"/>
</svg>
