<svg width="64" height="65" viewBox="0 0 64 65" fill="none" xmlns="http://www.w3.org/2000/svg">
<path d="M32 13C31.1513 13 30.3374 13.3424 29.7373 13.9519C29.1372 14.5614 28.8 15.388 28.8 16.25V30.498L21.024 34.4727C20.6354 34.6562 20.287 34.917 19.9995 35.2398C19.7121 35.5625 19.4914 35.9407 19.3505 36.3517C19.2096 36.7628 19.1515 37.1983 19.1795 37.6326C19.2076 38.0669 19.3212 38.4911 19.5137 38.8799C19.7062 39.2688 19.9737 39.6144 20.3002 39.8963C20.6267 40.1781 21.0056 40.3905 21.4145 40.5209C21.8234 40.6512 22.2538 40.6968 22.6804 40.6549C23.1069 40.6131 23.5209 40.4846 23.8976 40.2772L33.4368 35.4022C33.9668 35.1322 34.4124 34.7177 34.7238 34.2052C35.0352 33.6926 35.2001 33.1022 35.2 32.5V16.25C35.2 15.388 34.8629 14.5614 34.2627 13.9519C33.6626 13.3424 32.8487 13 32 13ZM32 0C25.671 0 19.4841 1.90609 14.2218 5.47724C8.95939 9.04838 4.85787 14.1242 2.43587 20.0628C0.0138651 26.0014 -0.619841 32.536 0.614885 38.8404C1.84961 45.1448 4.89732 50.9357 9.3726 55.481C13.8479 60.0262 19.5497 63.1215 25.7571 64.3755C31.9645 65.6295 38.3986 64.9859 44.2459 62.5261C50.0931 60.0662 55.0908 55.9006 58.607 50.556C62.1232 45.2114 64 38.9279 64 32.5C63.9907 23.8834 60.6163 15.6224 54.6171 9.52948C48.618 3.4366 40.4841 0.00946269 32 0V0ZM32 58.5C26.9368 58.5 21.9873 56.9751 17.7774 54.1182C13.5675 51.2613 10.2863 47.2006 8.3487 42.4498C6.41109 37.6989 5.90413 32.4711 6.89191 27.4276C7.87969 22.3841 10.3179 17.7514 13.8981 14.1152C17.4783 10.4791 22.0398 8.0028 27.0057 6.99958C31.9716 5.99637 37.1189 6.51125 41.7967 8.47913C46.4745 10.447 50.4727 13.7795 53.2856 18.0552C56.0986 22.3308 57.6 27.3577 57.6 32.5C57.5915 39.393 54.8917 46.0012 50.0926 50.8753C45.2935 55.7493 38.787 58.4914 32 58.5Z" fill="#1687A7"/>
</svg>
