<svg width="63" height="64" viewBox="0 0 63 64" fill="none" xmlns="http://www.w3.org/2000/svg">
<path d="M31.5443 28.7987C30.7101 28.7987 29.91 29.1359 29.3201 29.7359C28.7302 30.336 28.3988 31.1499 28.3988 31.9986V41.5982C28.3988 42.4468 28.7302 43.2607 29.3201 43.8608C29.91 44.4609 30.7101 44.798 31.5443 44.798C32.3786 44.798 33.1787 44.4609 33.7686 43.8608C34.3585 43.2607 34.6899 42.4468 34.6899 41.5982V31.9986C34.6899 31.1499 34.3585 30.336 33.7686 29.7359C33.1787 29.1359 32.3786 28.7987 31.5443 28.7987ZM31.5443 19.1992C30.9222 19.1992 30.314 19.3868 29.7967 19.7384C29.2795 20.09 28.8763 20.5898 28.6382 21.1745C28.4001 21.7592 28.3378 22.4026 28.4592 23.0233C28.5806 23.644 28.8802 24.2141 29.3201 24.6616C29.76 25.1092 30.3205 25.4139 30.9307 25.5374C31.5408 25.6609 32.1733 25.5975 32.7481 25.3553C33.3229 25.1131 33.8141 24.703 34.1598 24.1768C34.5054 23.6505 34.6899 23.0319 34.6899 22.399C34.6899 21.5504 34.3585 20.7365 33.7686 20.1364C33.1787 19.5363 32.3786 19.1992 31.5443 19.1992ZM31.5443 0C27.4135 0 23.3231 0.827668 19.5068 2.43575C15.6904 4.04383 12.2227 6.40083 9.30181 9.37217C3.40273 15.3731 0.0886621 23.512 0.0886621 31.9986C0.061163 39.3875 2.57615 46.5533 7.19764 52.2537L0.90651 58.6534C0.470038 59.1034 0.174367 59.6748 0.0568038 60.2955C-0.060759 60.9163 0.0050546 61.5585 0.24594 62.1413C0.507204 62.717 0.930743 63.2008 1.46279 63.5312C1.99484 63.8617 2.61141 64.0238 3.23423 63.9972H31.5443C39.8869 63.9972 47.8878 60.6259 53.7868 54.625C59.6859 48.6241 63 40.4851 63 31.9986C63 23.512 59.6859 15.3731 53.7868 9.37217C47.8878 3.37127 39.8869 0 31.5443 0V0ZM31.5443 57.5975H10.815L13.7404 54.6216C14.0376 54.3252 14.2741 53.9718 14.4361 53.5818C14.5981 53.1919 14.6824 52.7731 14.6841 52.3497C14.6723 51.5057 14.3331 50.7006 13.7404 50.1098C9.62157 45.9245 7.05664 40.4159 6.48263 34.5226C5.90861 28.6293 7.36103 22.7158 10.5924 17.7897C13.8238 12.8636 18.6343 9.22954 24.2042 7.50678C29.7741 5.78402 35.7589 6.07911 41.139 8.34175C46.519 10.6044 50.9615 14.6946 53.7094 19.9156C56.4573 25.1365 57.3407 31.1652 56.2091 36.9744C55.0775 42.7836 52.0009 48.014 47.5035 51.7745C43.0061 55.5349 37.366 57.5928 31.5443 57.5975V57.5975Z" fill="#1687A7"/>
</svg>
