<svg width="58" height="64" viewBox="0 0 58 64" fill="none" xmlns="http://www.w3.org/2000/svg">
<path d="M28.952 28.8C28.3192 28.8 27.7006 28.9877 27.1744 29.3393C26.6483 29.6909 26.2382 30.1907 25.996 30.7754C25.7538 31.3601 25.6905 32.0036 25.8139 32.6243C25.9374 33.245 26.2421 33.8152 26.6896 34.2627C27.137 34.7103 27.7071 35.015 28.3278 35.1385C28.9485 35.262 29.5918 35.1986 30.1764 34.9564C30.7611 34.7142 31.2608 34.3041 31.6123 33.7778C31.9639 33.2516 32.1516 32.6329 32.1516 32C32.1516 31.1513 31.8145 30.3374 31.2144 29.7373C30.6144 29.1371 29.8006 28.8 28.952 28.8ZM53.3327 32L53.6846 31.552C58.004 25.6 59.0279 20.128 56.6602 16C54.2925 11.872 48.9813 10.048 41.7503 10.784H41.1743C38.2627 4.16 33.9433 0 28.952 0C23.9607 0 19.6413 4.16 16.7617 10.88L16.1538 10.784C8.92274 10.048 3.61147 11.872 1.24379 16C-1.12388 20.128 -0.100024 25.6 4.21939 31.552L4.57134 32L4.21939 32.448C-0.100024 38.4 -1.12388 43.872 1.24379 48C3.3555 51.52 7.41895 53.376 12.9542 53.376C13.9461 53.376 14.9699 53.376 16.1538 53.216H16.7297C19.6413 59.84 23.9607 64 28.952 64C33.9433 64 38.2627 59.84 41.1423 53.12H41.7183C42.8061 53.12 43.83 53.28 44.9178 53.28C50.581 53.28 54.7405 51.424 56.7562 47.904C59.1239 43.776 58.1 38.304 53.7806 32.352L53.3327 32ZM6.77904 19.2C7.57893 17.792 9.9786 17.024 13.1782 17.024H14.7459C14.2446 18.9925 13.8705 20.9913 13.6261 23.008C11.9961 24.2412 10.4465 25.5772 8.98673 27.008C6.55507 23.808 5.85116 20.8 6.77904 19.2ZM6.77904 44.8C5.85116 43.2 6.77903 40.192 8.92274 36.896C10.3825 38.3268 11.9321 39.6628 13.5621 40.896C13.8066 42.9232 14.1806 44.9326 14.682 46.912C10.7145 47.168 7.70691 46.4 6.77904 44.8ZM28.952 6.4C30.7438 6.4 32.8875 8.512 34.7112 12.256C32.7565 12.8234 30.8339 13.4964 28.952 14.272C27.0701 13.4964 25.1475 12.8234 23.1928 12.256C25.0165 8.512 27.1602 6.4 28.952 6.4ZM28.952 57.6C27.1602 57.6 25.0165 55.488 23.1928 51.744C25.1475 51.1766 27.0701 50.5036 28.952 49.728C30.8339 50.5036 32.7565 51.1766 34.7112 51.744C32.8875 55.488 30.7438 57.6 28.952 57.6ZM38.3267 37.408C36.8549 38.432 35.3511 39.392 33.7513 40.32C32.1516 41.248 30.5518 42.08 28.952 42.816C27.3522 42.0693 25.7524 41.2373 24.1527 40.32C22.5529 39.392 20.9531 38.432 19.5773 37.408C19.3533 35.68 19.3533 33.888 19.3533 32C19.3533 30.112 19.3533 28.32 19.5773 26.592C21.0491 25.568 22.5529 24.608 24.1527 23.68C25.7524 22.752 27.3522 21.92 28.952 21.184C30.5518 21.9307 32.1516 22.7627 33.7513 23.68C35.3511 24.608 36.9509 25.568 38.3267 26.592C38.3267 28.32 38.5507 30.112 38.5507 32C38.5507 33.888 38.5507 35.68 38.3267 37.408V37.408ZM51.125 44.8C50.1971 46.4 47.1895 47.2 43.2221 46.912C43.7234 44.9326 44.0975 42.9232 44.3419 40.896C45.9719 39.6628 47.5215 38.3268 48.9813 36.896C51.3489 40.192 52.0528 43.2 51.125 44.8V44.8ZM48.9813 27.104C47.5215 25.6732 45.9719 24.3372 44.3419 23.104C44.0975 21.0874 43.7234 19.0885 43.2221 17.12H44.7898C47.9894 17.12 50.3251 17.888 51.189 19.296C52.0528 20.704 51.3489 23.808 48.9813 27.104V27.104Z" fill="#1687A7"/>
</svg>
