<svg width="48" height="49" viewBox="0 0 48 49" fill="none" xmlns="http://www.w3.org/2000/svg">
<path d="M42.0506 27.028C41.5207 27.028 40.9667 26.8554 40.4368 26.7321C39.3637 26.49 38.3091 26.1686 37.2814 25.7704C36.164 25.3542 34.9358 25.3758 33.833 25.8311C32.7302 26.2863 31.8309 27.143 31.308 28.2364L30.7781 29.3461C28.4321 28.0099 26.2763 26.3504 24.3711 24.4141C22.4798 22.4635 20.8589 20.2564 19.5538 17.8545L20.5654 17.1641C21.6333 16.6287 22.4701 15.708 22.9148 14.5789C23.3595 13.4499 23.3806 12.1924 22.9741 11.0484C22.5916 9.99401 22.2778 8.91484 22.0347 7.81797C21.9143 7.27545 21.8179 6.70827 21.7457 6.1411C21.4532 4.4041 20.5645 2.8311 19.2398 1.70537C17.915 0.579641 16.2412 -0.024842 14.5197 0.000782466H7.29379C6.25574 -0.00919626 5.22777 0.209931 4.27987 0.643248C3.33197 1.07656 2.48639 1.7139 1.8007 2.51185C1.11501 3.30981 0.605297 4.24967 0.306272 5.26743C0.00724688 6.28519 -0.0740742 7.35697 0.0678448 8.40981C1.35102 18.7408 5.95946 28.3396 13.1652 35.6901C20.371 43.0407 29.7634 47.7239 39.8587 49H40.774C42.5502 49.0027 44.2651 48.3355 45.5913 47.1258C46.3533 46.4281 46.962 45.5727 47.3772 44.6162C47.7924 43.6598 48.0047 42.624 47.9999 41.5774V34.1794C47.9704 32.4665 47.3612 30.8171 46.2761 29.5129C45.1911 28.2087 43.6976 27.3304 42.0506 27.028V27.028ZM43.2549 41.824C43.2545 42.1741 43.1812 42.5201 43.04 42.839C42.8988 43.1579 42.6929 43.4424 42.4359 43.6735C42.1676 43.9127 41.853 44.0912 41.5127 44.1975C41.1723 44.3037 40.8139 44.3352 40.4609 44.29C31.4402 43.1058 23.0614 38.8808 16.6459 32.2813C10.2304 25.6818 6.14344 17.0835 5.02966 7.84263C4.99132 7.48141 5.02492 7.11598 5.12842 6.76842C5.23192 6.42087 5.40317 6.0984 5.63182 5.82052C5.85753 5.55747 6.13537 5.34666 6.44685 5.20209C6.75833 5.05752 7.09631 4.98252 7.43831 4.98208H14.6642C15.2244 4.96932 15.7713 5.15687 16.2109 5.51244C16.6506 5.86802 16.9554 6.36937 17.0729 6.93021C17.1692 7.60425 17.2897 8.27007 17.4342 8.92766C17.7124 10.2276 18.0827 11.5051 18.5422 12.7499L15.1701 14.3528C14.8817 14.4883 14.6224 14.6807 14.4069 14.919C14.1914 15.1574 14.024 15.4369 13.9144 15.7417C13.8047 16.0464 13.7549 16.3703 13.7679 16.6948C13.7808 17.0193 13.8562 17.338 13.9898 17.6326C17.4564 25.2346 23.4251 31.3455 30.8504 34.8945C31.4368 35.1412 32.0945 35.1412 32.6809 34.8945C32.9813 34.7845 33.2574 34.6145 33.4931 34.3944C33.7287 34.1743 33.9194 33.9084 34.0539 33.6122L35.5472 30.1598C36.7924 30.6157 38.0633 30.9945 39.3529 31.2942C39.9952 31.4421 40.6455 31.5654 41.3039 31.6641C41.8517 31.7844 42.3414 32.0965 42.6887 32.5466C43.036 32.9966 43.2192 33.5566 43.2067 34.1301L43.2549 41.824Z" fill="#1687A7"/>
</svg>
