<svg width="40" height="40" viewBox="0 0 40 40" fill="none" xmlns="http://www.w3.org/2000/svg">
<path d="M20 8C19.4696 8 18.9609 8.21071 18.5858 8.58578C18.2107 8.96086 18 9.46956 18 10V18.768L13.14 21.214C12.8971 21.3269 12.6794 21.4874 12.4997 21.686C12.32 21.8846 12.1821 22.1173 12.0941 22.3703C12.006 22.6232 11.9697 22.8913 11.9872 23.1585C12.0047 23.4258 12.0758 23.6868 12.1961 23.9261C12.3164 24.1654 12.4835 24.3781 12.6876 24.5515C12.8917 24.725 13.1285 24.8557 13.3841 24.9359C13.6396 25.0161 13.9087 25.0442 14.1752 25.0184C14.4418 24.9927 14.7005 24.9136 14.936 24.786L20.898 21.786C21.2293 21.6198 21.5078 21.3647 21.7024 21.0493C21.897 20.7339 22 20.3706 22 20V10C22 9.46956 21.7893 8.96086 21.4142 8.58578C21.0391 8.21071 20.5304 8 20 8ZM20 0C16.0444 0 12.1776 1.17298 8.8886 3.37061C5.59962 5.56823 3.03617 8.69181 1.52242 12.3463C0.00866568 16.0008 -0.387401 20.0222 0.384303 23.9018C1.15601 27.7814 3.06082 31.3451 5.85787 34.1421C8.65492 36.9392 12.2186 38.844 16.0982 39.6157C19.9778 40.3874 23.9992 39.9913 27.6537 38.4776C31.3082 36.9638 34.4318 34.4004 36.6294 31.1114C38.827 27.8224 40 23.9556 40 20C39.9942 14.6975 37.8852 9.61376 34.1357 5.86429C30.3862 2.11483 25.3025 0.00582319 20 0V0ZM20 36C16.8355 36 13.7421 35.0616 11.1109 33.3035C8.4797 31.5454 6.42894 29.0465 5.21794 26.1229C4.00693 23.1993 3.69008 19.9822 4.30744 16.8786C4.92481 13.7749 6.44866 10.9239 8.6863 8.68629C10.9239 6.44865 13.7749 4.9248 16.8786 4.30743C19.9823 3.69007 23.1993 4.00692 26.1229 5.21793C29.0466 6.42893 31.5454 8.47969 33.3035 11.1109C35.0616 13.7421 36 16.8355 36 20C35.9947 24.2418 34.3073 28.3084 31.3079 31.3079C28.3084 34.3073 24.2418 35.9947 20 36Z" fill="#333333"/>
</svg>
