<svg width="43" height="43" viewBox="0 0 43 43" fill="none" xmlns="http://www.w3.org/2000/svg">
<path d="M26.5476 21.4969L41.9411 6.1371C42.6152 5.46291 42.9939 4.54849 42.9939 3.59503C42.9939 2.64157 42.6152 1.72716 41.9411 1.05296C41.267 0.378761 40.3527 0 39.3994 0C38.446 0 37.5318 0.378761 36.8577 1.05296L21.5 16.4486L6.14234 1.05296C5.46824 0.378761 4.55396 -7.10384e-09 3.60063 0C2.6473 7.10385e-09 1.73302 0.378761 1.05892 1.05296C0.384817 1.72716 0.00610942 2.64157 0.00610941 3.59503C0.00610941 4.54849 0.384817 5.46291 1.05892 6.1371L16.4524 21.4969L1.05892 36.8568C0.723385 37.1896 0.457063 37.5856 0.275318 38.0219C0.0935725 38.4582 0 38.9262 0 39.3989C0 39.8715 0.0935725 40.3395 0.275318 40.7758C0.457063 41.2121 0.723385 41.6081 1.05892 41.9409C1.39172 42.2765 1.78765 42.5429 2.22389 42.7246C2.66014 42.9064 3.12805 43 3.60063 43C4.07322 43 4.54113 42.9064 4.97737 42.7246C5.41361 42.5429 5.80955 42.2765 6.14234 41.9409L21.5 26.5453L36.8577 41.9409C37.1905 42.2765 37.5864 42.5429 38.0226 42.7246C38.4589 42.9064 38.9268 43 39.3994 43C39.872 43 40.3399 42.9064 40.7761 42.7246C41.2123 42.5429 41.6083 42.2765 41.9411 41.9409C42.2766 41.6081 42.5429 41.2121 42.7247 40.7758C42.9064 40.3395 43 39.8715 43 39.3989C43 38.9262 42.9064 38.4582 42.7247 38.0219C42.5429 37.5856 42.2766 37.1896 41.9411 36.8568L26.5476 21.4969Z" fill="#D3E0EA"/>
</svg>
